<svg width="40" height="40" viewBox="0 0 40 40" fill="none" xmlns="http://www.w3.org/2000/svg">
<path d="M21 30.3333C22.2887 30.3333 23.3333 29.2887 23.3333 28C23.3333 26.7113 22.2887 25.6667 21 25.6667C19.7113 25.6667 18.6667 26.7113 18.6667 28C18.6667 29.2887 19.7113 30.3333 21 30.3333ZM10.3333 30.3333C11.622 30.3333 12.6667 29.2887 12.6667 28C12.6667 26.7113 11.622 25.6667 10.3333 25.6667C9.04467 25.6667 8 26.7113 8 28C8 29.2887 9.04467 30.3333 10.3333 30.3333ZM5.78667 5.58667L5.52 8.85333C5.46667 9.48 5.96 10 6.58667 10H27C27.56 10 28.0267 9.57333 28.0667 9.01333C28.24 6.65333 26.44 4.73333 24.08 4.73333H7.69333C7.56 4.14667 7.29333 3.58667 6.88 3.12C6.21333 2.41333 5.28 2 4.32 2H2C1.45333 2 1 2.45333 1 3C1 3.54667 1.45333 4 2 4H4.32C4.73333 4 5.12 4.17333 5.4 4.46667C5.68 4.77333 5.81333 5.17333 5.78667 5.58667ZM26.6801 12H6.22673C5.66673 12 5.2134 12.4267 5.16007 12.9733L4.68007 18.7733C4.4934 21.0533 6.28007 23 8.56007 23H23.3868C25.3868 23 27.1468 21.36 27.2935 19.36L27.7335 13.1333C27.7868 12.52 27.3068 12 26.6801 12Z" fill="url(#paint0_linear_320_1095)"/>
<mask id="path-2-outside-1_320_1095" maskUnits="userSpaceOnUse" x="22.332" y="13.334" width="11" height="11" fill="black">
<rect fill="white" x="22.332" y="13.334" width="11" height="11"/>
<path d="M24.5517 15.5537C24.8446 15.2608 25.3195 15.2608 25.6124 15.5537L28.082 18.0233L30.5517 15.5537C30.8446 15.2608 31.3194 15.2608 31.6123 15.5537C31.9052 15.8466 31.9052 16.3214 31.6123 16.6143L29.1427 19.084L31.6123 21.5537C31.9052 21.8466 31.9052 22.3214 31.6123 22.6143C31.3194 22.9072 30.8446 22.9072 30.5517 22.6143L28.082 20.1447L25.6124 22.6143C25.3195 22.9072 24.8446 22.9072 24.5517 22.6143C24.2588 22.3214 24.2588 21.8466 24.5517 21.5537L27.0213 19.084L24.5517 16.6143C24.2588 16.3214 24.2588 15.8465 24.5517 15.5537Z"/>
</mask>
<path d="M24.5517 15.5537C24.8446 15.2608 25.3195 15.2608 25.6124 15.5537L28.082 18.0233L30.5517 15.5537C30.8446 15.2608 31.3194 15.2608 31.6123 15.5537C31.9052 15.8466 31.9052 16.3214 31.6123 16.6143L29.1427 19.084L31.6123 21.5537C31.9052 21.8466 31.9052 22.3214 31.6123 22.6143C31.3194 22.9072 30.8446 22.9072 30.5517 22.6143L28.082 20.1447L25.6124 22.6143C25.3195 22.9072 24.8446 22.9072 24.5517 22.6143C24.2588 22.3214 24.2588 21.8466 24.5517 21.5537L27.0213 19.084L24.5517 16.6143C24.2588 16.3214 24.2588 15.8465 24.5517 15.5537Z" fill="url(#paint1_linear_320_1095)"/>
<path d="M25.6124 15.5537L24.5517 16.6143L24.5517 16.6143L25.6124 15.5537ZM28.082 18.0233L27.0214 19.084L28.082 20.1446L29.1427 19.084L28.082 18.0233ZM30.5517 15.5537L29.4911 14.493L29.4911 14.493L30.5517 15.5537ZM31.6123 16.6143L30.5517 15.5536L30.5517 15.5537L31.6123 16.6143ZM29.1427 19.084L28.0821 18.0234L27.0215 19.084L28.0821 20.1446L29.1427 19.084ZM31.6123 21.5537L30.5517 22.6143L30.5517 22.6144L31.6123 21.5537ZM30.5517 22.6143L31.6124 21.5536L31.6124 21.5536L30.5517 22.6143ZM28.082 20.1447L29.1427 19.084L28.082 18.0234L27.0214 19.084L28.082 20.1447ZM25.6124 22.6143L24.5517 21.5536L24.5517 21.5536L25.6124 22.6143ZM24.5517 22.6143L25.6124 21.5537L25.6124 21.5536L24.5517 22.6143ZM24.5517 21.5537L25.6124 22.6144L25.6124 22.6143L24.5517 21.5537ZM27.0213 19.084L28.082 20.1446L29.1426 19.084L28.082 18.0234L27.0213 19.084ZM24.5517 16.6143L25.6124 15.5537L25.6124 15.5537L24.5517 16.6143ZM25.6124 16.6143C25.3195 16.9072 24.8446 16.9072 24.5517 16.6143L26.673 14.493C25.7943 13.6143 24.3697 13.6143 23.491 14.493L25.6124 16.6143ZM24.5517 16.6143L27.0214 19.084L29.1427 16.9626L26.673 14.493L24.5517 16.6143ZM29.1427 19.084L31.6124 16.6143L29.4911 14.493L27.0214 16.9626L29.1427 19.084ZM31.6124 16.6143C31.3195 16.9072 30.8446 16.9072 30.5517 16.6143L32.673 14.493C31.7943 13.6143 30.3698 13.6143 29.4911 14.493L31.6124 16.6143ZM30.5517 16.6143C30.2588 16.3214 30.2588 15.8465 30.5517 15.5536L32.673 17.675C33.5517 16.7963 33.5517 15.3717 32.673 14.493L30.5517 16.6143ZM30.5517 15.5537L28.0821 18.0234L30.2034 20.1446L32.673 17.675L30.5517 15.5537ZM28.0821 20.1446L30.5517 22.6143L32.673 20.4931L30.2034 18.0234L28.0821 20.1446ZM30.5517 22.6144C30.2588 22.3215 30.2588 21.8465 30.5517 21.5536L32.673 23.675C33.5517 22.7963 33.5517 21.3717 32.673 20.493L30.5517 22.6144ZM30.5517 21.5536C30.8446 21.2608 31.3195 21.2608 31.6124 21.5536L29.4911 23.675C30.3698 24.5537 31.7943 24.5537 32.673 23.675L30.5517 21.5536ZM31.6124 21.5536L29.1427 19.084L27.0214 21.2054L29.4911 23.675L31.6124 21.5536ZM27.0214 19.084L24.5517 21.5536L26.673 23.675L29.1427 21.2054L27.0214 19.084ZM24.5517 21.5536C24.8446 21.2608 25.3195 21.2607 25.6124 21.5537L23.491 23.675C24.3697 24.5537 25.7944 24.5536 26.673 23.675L24.5517 21.5536ZM25.6124 21.5536C25.9053 21.8465 25.9053 22.3215 25.6124 22.6144L23.491 20.493C22.6124 21.3717 22.6124 22.7963 23.491 23.675L25.6124 21.5536ZM25.6124 22.6143L28.082 20.1446L25.9607 18.0234L23.491 20.4931L25.6124 22.6143ZM28.082 18.0234L25.6124 15.5537L23.491 17.675L25.9607 20.1446L28.082 18.0234ZM25.6124 15.5537C25.9053 15.8466 25.9053 16.3214 25.6124 16.6143L23.491 14.493C22.6124 15.3717 22.6124 16.7963 23.491 17.675L25.6124 15.5537Z" fill="#4B4B4B" mask="url(#path-2-outside-1_320_1095)"/>
<defs>
<linearGradient id="paint0_linear_320_1095" x1="14.5391" y1="2" x2="14.5391" y2="30.3333" gradientUnits="userSpaceOnUse">
<stop stop-color="#00F6A3"/>
<stop offset="1" stop-color="#14C1CD"/>
</linearGradient>
<linearGradient id="paint1_linear_320_1095" x1="28.082" y1="15.334" x2="28.082" y2="22.834" gradientUnits="userSpaceOnUse">
<stop stop-color="#00F6A3"/>
<stop offset="1" stop-color="#01EAEE"/>
</linearGradient>
</defs>
</svg>
