<svg width="32" height="32" viewBox="0 0 32 32" fill="none" xmlns="http://www.w3.org/2000/svg">
<path d="M15.0025 10.7709V14.5842L13.6559 14.1175C12.9758 13.8775 12.5625 13.6508 12.5625 12.4909C12.5625 11.5442 13.2692 10.7709 14.1359 10.7709H15.0025ZM19.44 19.5048C19.44 20.4515 18.7333 21.2248 17.8667 21.2248H17V17.4115L18.3467 17.8782C19.0267 18.1182 19.44 18.3448 19.44 19.5048Z" fill="url(#paint0_linear_320_1099)"/>
<path d="M21.5866 2.66663H10.4133C5.55996 2.66663 2.66663 5.55996 2.66663 10.4133V21.5866C2.66663 26.44 5.55996 29.3333 10.4133 29.3333H21.5866C26.44 29.3333 29.3333 26.44 29.3333 21.5866V10.4133C29.3333 5.55996 26.44 2.66663 21.5866 2.66663ZM19.0133 16C20.0533 16.36 21.44 17.12 21.44 19.5066C21.44 21.56 19.84 23.2266 17.8666 23.2266H17V24C17 24.5466 16.5466 25 16 25C15.4533 25 15 24.5466 15 24V23.2266H14.52C12.3333 23.2266 10.56 21.3733 10.56 19.1066C10.56 18.56 11 18.1066 11.56 18.1066C12.1066 18.1066 12.56 18.56 12.56 19.1066C12.56 20.28 13.44 21.2266 14.52 21.2266H15V16.7066L12.9866 16C11.9466 15.64 10.56 14.88 10.56 12.4933C10.56 10.44 12.16 8.77329 14.1333 8.77329H15V7.99996C15 7.45329 15.4533 6.99996 16 6.99996C16.5466 6.99996 17 7.45329 17 7.99996V8.77329H17.48C19.6666 8.77329 21.44 10.6266 21.44 12.8933C21.44 13.44 21 13.8933 20.44 13.8933C19.8933 13.8933 19.44 13.44 19.44 12.8933C19.44 11.72 18.56 10.7733 17.48 10.7733H17V15.2933L19.0133 16Z" fill="url(#paint1_linear_320_1099)"/>
<defs>
<linearGradient id="paint0_linear_320_1099" x1="16.0012" y1="10.7709" x2="16.0012" y2="21.2248" gradientUnits="userSpaceOnUse">
<stop stop-color="#00F6A3"/>
<stop offset="1" stop-color="#02E7FF"/>
</linearGradient>
<linearGradient id="paint1_linear_320_1099" x1="16" y1="2.66663" x2="16" y2="29.3333" gradientUnits="userSpaceOnUse">
<stop stop-color="#00F6A3"/>
<stop offset="1" stop-color="#02E7FF"/>
</linearGradient>
</defs>
</svg>
