<svg width="32" height="32" viewBox="0 0 32 32" fill="none" xmlns="http://www.w3.org/2000/svg">
<path d="M29.3336 14.6256V17.3723C29.3336 18.1056 28.7469 18.7056 28.0003 18.7323H25.3869C23.9469 18.7323 22.6269 17.6789 22.5069 16.2389C22.4269 15.3989 22.7469 14.6123 23.3069 14.0656C23.8002 13.5589 24.4803 13.2656 25.2269 13.2656H28.0003C28.7469 13.2923 29.3336 13.8923 29.3336 14.6256Z" fill="url(#paint0_linear_320_1087)"/>
<path d="M27.2933 20.7333H25.3866C22.8533 20.7333 20.72 18.8266 20.5066 16.4C20.3866 15.0133 20.8933 13.6266 21.9066 12.64C22.76 11.76 23.9466 11.2666 25.2266 11.2666H27.2933C27.68 11.2666 28 10.9466 27.96 10.56C27.6666 7.31996 25.52 5.10663 22.3333 4.73329C22.0133 4.67996 21.68 4.66663 21.3333 4.66663H9.33329C8.95996 4.66663 8.59996 4.69329 8.25329 4.74663C4.85329 5.17329 2.66663 7.70663 2.66663 11.3333V20.6666C2.66663 24.3466 5.65329 27.3333 9.33329 27.3333H21.3333C25.0666 27.3333 27.64 25 27.96 21.44C28 21.0533 27.68 20.7333 27.2933 20.7333ZM17.3333 13H9.33329C8.78663 13 8.33329 12.5466 8.33329 12C8.33329 11.4533 8.78663 11 9.33329 11H17.3333C17.88 11 18.3333 11.4533 18.3333 12C18.3333 12.5466 17.88 13 17.3333 13Z" fill="url(#paint1_linear_320_1087)"/>
<defs>
<linearGradient id="paint0_linear_320_1087" x1="25.9142" y1="13.2656" x2="25.9142" y2="18.7323" gradientUnits="userSpaceOnUse">
<stop offset="0.0416667" stop-color="#00F6A3"/>
<stop offset="1" stop-color="#02E7FF"/>
</linearGradient>
<linearGradient id="paint1_linear_320_1087" x1="15.315" y1="4.66663" x2="15.315" y2="27.3333" gradientUnits="userSpaceOnUse">
<stop offset="0.0416667" stop-color="#00F6A3"/>
<stop offset="1" stop-color="#02E7FF"/>
</linearGradient>
</defs>
</svg>
