<svg width="32" height="32" viewBox="0 0 32 32" fill="none" xmlns="http://www.w3.org/2000/svg">
<path d="M21.5866 2.66669H10.4133C5.55996 2.66669 2.66663 5.56002 2.66663 10.4134V21.5734C2.66663 26.44 5.55996 29.3334 10.4133 29.3334H21.5733C26.4266 29.3334 29.32 26.44 29.32 21.5867V10.4134C29.3333 5.56002 26.44 2.66669 21.5866 2.66669ZM13.2133 21.5867C13.2133 22.44 12.52 23.1334 11.6533 23.1334C10.8 23.1334 10.1066 22.44 10.1066 21.5867V17.24C10.1066 16.3867 10.8 15.6934 11.6533 15.6934C12.52 15.6934 13.2133 16.3867 13.2133 17.24V21.5867ZM21.8933 21.5867C21.8933 22.44 21.2 23.1334 20.3466 23.1334C19.48 23.1334 18.7866 22.44 18.7866 21.5867V10.4134C18.7866 9.56002 19.48 8.86669 20.3466 8.86669C21.2 8.86669 21.8933 9.56002 21.8933 10.4134V21.5867Z" fill="url(#paint0_linear_320_1090)"/>
<defs>
<linearGradient id="paint0_linear_320_1090" x1="15.9933" y1="2.66669" x2="15.9933" y2="29.3334" gradientUnits="userSpaceOnUse">
<stop stop-color="#00F6A3"/>
<stop offset="1" stop-color="#02E7FF"/>
</linearGradient>
</defs>
</svg>
