<svg width="32" height="32" viewBox="0 0 32 32" fill="none" xmlns="http://www.w3.org/2000/svg">
<path d="M21.5868 2.66663H10.4134C5.56008 2.66663 2.66675 5.55996 2.66675 10.4133V21.5733C2.66675 26.44 5.56008 29.3333 10.4134 29.3333H21.5734C26.4268 29.3333 29.3201 26.44 29.3201 21.5866V10.4133C29.3334 5.55996 26.4401 2.66663 21.5868 2.66663ZM23.0134 13.28L19.9334 17.2533C19.5467 17.7466 19.0001 18.0666 18.3734 18.1333C17.7467 18.2133 17.1334 18.04 16.6401 17.6533L14.2001 15.7333C14.1067 15.6533 14.0001 15.6533 13.9467 15.6666C13.8934 15.6666 13.8001 15.6933 13.7201 15.8L10.5467 19.92C10.3467 20.1733 10.0534 20.3066 9.76008 20.3066C9.54675 20.3066 9.33342 20.24 9.14675 20.0933C8.70675 19.76 8.62675 19.1333 8.96008 18.6933L12.1334 14.5733C12.5201 14.08 13.0667 13.76 13.6934 13.68C14.3067 13.6 14.9334 13.7733 15.4267 14.16L17.8667 16.08C17.9601 16.16 18.0534 16.16 18.1201 16.1466C18.1734 16.1466 18.2667 16.12 18.3467 16.0133L21.4267 12.04C21.7601 11.6 22.4001 11.52 22.8267 11.8666C23.2668 12.2266 23.3467 12.8533 23.0134 13.28Z" fill="url(#paint0_linear_320_1085)"/>
<defs>
<linearGradient id="paint0_linear_320_1085" x1="15.9934" y1="2.66663" x2="15.9934" y2="29.3333" gradientUnits="userSpaceOnUse">
<stop offset="0.270833" stop-color="#00F6A3"/>
<stop offset="1" stop-color="#1BAFDB"/>
</linearGradient>
</defs>
</svg>
