<svg width="32" height="32" viewBox="0 0 32 32" fill="none" xmlns="http://www.w3.org/2000/svg">
<g clip-path="url(#clip0_320_1092)">
<path d="M21.6667 30C22.9554 30 24.0001 28.9553 24.0001 27.6666C24.0001 26.378 22.9554 25.3333 21.6667 25.3333C20.3781 25.3333 19.3334 26.378 19.3334 27.6666C19.3334 28.9553 20.3781 30 21.6667 30ZM11.0001 30C12.2887 30 13.3334 28.9553 13.3334 27.6666C13.3334 26.378 12.2887 25.3333 11.0001 25.3333C9.71142 25.3333 8.66675 26.378 8.66675 27.6666C8.66675 28.9553 9.71142 30 11.0001 30ZM6.45341 5.25329L6.18675 8.51996C6.13341 9.14663 6.62675 9.66663 7.25342 9.66663H27.6667C28.2267 9.66663 28.6934 9.23996 28.7334 8.67996C28.9067 6.31996 27.1067 4.39996 24.7467 4.39996H8.36008C8.22675 3.81329 7.96008 3.25329 7.54675 2.78663C6.88008 2.07996 5.94675 1.66663 4.98675 1.66663H2.66675C2.12008 1.66663 1.66675 2.11996 1.66675 2.66663C1.66675 3.21329 2.12008 3.66663 2.66675 3.66663H4.98675C5.40008 3.66663 5.78675 3.83996 6.06675 4.13329C6.34675 4.43996 6.48008 4.83996 6.45341 5.25329ZM27.3469 11.6666H6.89348C6.33348 11.6666 5.88015 12.0933 5.82681 12.64L5.34681 18.44C5.16015 20.72 6.94682 22.6666 9.22682 22.6666H24.0535C26.0535 22.6666 27.8135 21.0266 27.9602 19.0266L28.4002 12.8C28.4535 12.1866 27.9735 11.6666 27.3469 11.6666Z" fill="url(#paint0_linear_320_1092)"/>
<path d="M29.1583 15.4881L29.1583 15.4881L29.1571 15.4858C28.8346 14.8348 28.2815 14.2527 27.5077 14.25C26.7332 14.2473 26.1777 14.8264 25.8543 15.4733L25.8543 15.4733L25.8519 15.4781L25.5741 16.0437C25.5734 16.0449 25.5713 16.0486 25.567 16.0548C25.5615 16.0628 25.5534 16.0732 25.5424 16.0857C25.5198 16.1111 25.49 16.1389 25.4551 16.165C25.4202 16.1912 25.3863 16.2112 25.3579 16.2245C25.3353 16.2351 25.3226 16.2386 25.3206 16.2391L24.9481 16.2979L24.9481 16.2979L24.9418 16.299C24.2366 16.4165 23.5498 16.7813 23.3205 17.5011C23.0923 18.2174 23.4362 18.9133 23.9393 19.4236L24.2839 19.7781C24.285 19.7792 24.2881 19.7829 24.2929 19.7897C24.2989 19.7982 24.3064 19.8102 24.3147 19.8259C24.3317 19.8579 24.3483 19.8983 24.3611 19.9435C24.3739 19.9887 24.3809 20.0313 24.3832 20.0665C24.3851 20.0958 24.3833 20.1124 24.3826 20.1171L24.3355 20.315L24.3355 20.315L24.3345 20.3193C24.16 21.0716 24.1765 21.9783 24.8567 22.479C25.5392 22.9814 26.4057 22.7215 27.0659 22.3249L27.3199 22.1784L27.3217 22.1773C27.336 22.1691 27.4007 22.1438 27.5051 22.1438C27.6095 22.1438 27.6742 22.1691 27.6885 22.1773L27.6903 22.1784L27.945 22.3253C28.6013 22.7176 29.4633 22.9749 30.1443 22.4765C30.8234 21.9794 30.846 21.0772 30.6769 20.3244L30.6769 20.3244L30.6747 20.315L30.6276 20.1171C30.6269 20.1124 30.6251 20.0958 30.627 20.0665C30.6292 20.0313 30.6363 19.9887 30.6491 19.9435C30.6619 19.8983 30.6785 19.8579 30.6954 19.8259C30.7037 19.8102 30.7113 19.7982 30.7173 19.7897C30.7208 19.7847 30.7234 19.7814 30.725 19.7795L31.0654 19.4391L31.0654 19.4391L31.0686 19.4359C31.5729 18.9254 31.9182 18.2285 31.6897 17.5111C31.4604 16.7913 30.7736 16.4265 30.0684 16.309L30.0684 16.3089L30.0621 16.3079L29.7015 16.251C29.6769 16.2445 29.619 16.2219 29.5505 16.1706C29.5165 16.1452 29.4881 16.1187 29.4668 16.0947C29.4564 16.0829 29.4487 16.073 29.4434 16.0653C29.4408 16.0616 29.4389 16.0586 29.4377 16.0565C29.437 16.0553 29.4365 16.0544 29.4362 16.0539L29.1583 15.4881Z" fill="url(#paint1_linear_320_1092)" stroke="#4B4B4B" stroke-width="1.5"/>
</g>
<defs>
<linearGradient id="paint0_linear_320_1092" x1="15.0007" y1="-7.99939" x2="15.2059" y2="30" gradientUnits="userSpaceOnUse">
<stop stop-color="#00F5A9"/>
<stop offset="1" stop-color="#1BAFDB"/>
</linearGradient>
<linearGradient id="paint1_linear_320_1092" x1="27.5051" y1="15" x2="27.5051" y2="22.0045" gradientUnits="userSpaceOnUse">
<stop stop-color="#00F6A3"/>
<stop offset="1" stop-color="#02E7FF"/>
</linearGradient>
<clipPath id="clip0_320_1092">
<rect width="32" height="32" fill="white"/>
</clipPath>
</defs>
</svg>
