<svg width="32" height="24" viewBox="0 0 32 24" fill="none" xmlns="http://www.w3.org/2000/svg">
<path d="M17.0007 20.67C17.1907 20.67 17.3807 20.6 17.5307 20.45L24.0507 13.93C25.1107 12.87 25.1107 11.13 24.0507 10.07L17.5307 3.55002C17.2407 3.26002 16.7607 3.26002 16.4707 3.55002C16.1807 3.84002 16.1807 4.32002 16.4707 4.61002L22.9907 11.13C23.4707 11.61 23.4707 12.39 22.9907 12.87L16.4707 19.39C16.1807 19.68 16.1807 20.16 16.4707 20.45C16.6207 20.59 16.8107 20.67 17.0007 20.67Z" fill="black"/>
<path d="M9.0007 20.67C9.1907 20.67 9.3807 20.6 9.5307 20.45L16.0507 13.93C17.1107 12.87 17.1107 11.13 16.0507 10.07L9.5307 3.55002C9.2407 3.26002 8.7607 3.26002 8.4707 3.55002C8.1807 3.84002 8.1807 4.32002 8.4707 4.61002L14.9907 11.13C15.4707 11.61 15.4707 12.39 14.9907 12.87L8.4707 19.39C8.1807 19.68 8.1807 20.16 8.4707 20.45C8.6207 20.59 8.8107 20.67 9.0007 20.67Z" fill="black"/>
</svg>
