<svg width="20" height="20" viewBox="0 0 20 20" fill="none" xmlns="http://www.w3.org/2000/svg">
<path opacity="0.4" d="M9.99257 15.5179L4.58279 18.2201C4.17426 18.4419 3.66465 18.2938 3.43616 17.887C3.36942 17.759 3.33413 17.6169 3.33325 17.4724V11.424C3.33325 12.0237 3.67136 12.3938 4.56074 12.8084L9.99257 15.5179Z" fill="#5B5B5B"/>
<path fill-rule="evenodd" clip-rule="evenodd" d="M7.41263 1.66669H12.5578C14.8143 1.66669 16.6445 2.55506 16.6666 4.82783V17.4724C16.6657 17.6145 16.6304 17.7543 16.5637 17.8796C16.4565 18.0839 16.2715 18.2356 16.0511 18.2998C15.8307 18.364 15.5939 18.3353 15.395 18.2201L9.99257 15.518L4.56074 12.8084C3.67136 12.3938 3.33325 12.0237 3.33325 11.424V4.82783C3.33325 2.55506 5.16346 1.66669 7.41263 1.66669ZM6.85402 8.01858H13.1238C13.4851 8.01858 13.7779 7.72359 13.7779 7.3597C13.7779 6.99581 13.4851 6.70082 13.1238 6.70082H6.85402C6.49273 6.70082 6.19985 6.99581 6.19985 7.3597C6.19985 7.72359 6.49273 8.01858 6.85402 8.01858Z" fill="#5B5B5B"/>
</svg>
