<svg width="20" height="20" viewBox="0 0 20 20" fill="none" xmlns="http://www.w3.org/2000/svg">
<path opacity="0.4" d="M13.3964 1.66663H16.2181C17.3866 1.66663 18.3335 2.6215 18.3335 3.79993V6.6454C18.3335 7.82382 17.3866 8.7787 16.2181 8.7787H13.3964C12.2279 8.7787 11.281 7.82382 11.281 6.6454V3.79993C11.281 2.6215 12.2279 1.66663 13.3964 1.66663Z" fill="#5B5B5B"/>
<path fill-rule="evenodd" clip-rule="evenodd" d="M3.78219 1.66663H6.60382C7.77238 1.66663 8.71926 2.6215 8.71926 3.79993V6.6454C8.71926 7.82382 7.77238 8.7787 6.60382 8.7787H3.78219C2.61363 8.7787 1.66675 7.82382 1.66675 6.6454V3.79993C1.66675 2.6215 2.61363 1.66663 3.78219 1.66663ZM3.78219 11.2212H6.60382C7.77238 11.2212 8.71926 12.1761 8.71926 13.3545V16.2C8.71926 17.3776 7.77238 18.3333 6.60382 18.3333H3.78219C2.61363 18.3333 1.66675 17.3776 1.66675 16.2V13.3545C1.66675 12.1761 2.61363 11.2212 3.78219 11.2212ZM16.218 11.2212H13.3963C12.2278 11.2212 11.2809 12.1761 11.2809 13.3545V16.2C11.2809 17.3776 12.2278 18.3333 13.3963 18.3333H16.218C17.3865 18.3333 18.3334 17.3776 18.3334 16.2V13.3545C18.3334 12.1761 17.3865 11.2212 16.218 11.2212Z" fill="#5B5B5B"/>
</svg>
