<svg width="20" height="20" viewBox="0 0 20 20" fill="none" xmlns="http://www.w3.org/2000/svg">
<path opacity="0.4" d="M13.6167 1.6665H6.39175C3.56675 1.6665 1.66675 3.64984 1.66675 6.59984V13.4082C1.66675 16.3498 3.56675 18.3332 6.39175 18.3332H13.6167C16.4417 18.3332 18.3334 16.3498 18.3334 13.4082V6.59984C18.3334 3.64984 16.4417 1.6665 13.6167 1.6665Z" fill="#5B5B5B"/>
<path fill-rule="evenodd" clip-rule="evenodd" d="M9.27052 6.82438C9.27052 7.22605 9.59636 7.55355 9.99552 7.55355C10.4064 7.55355 10.733 7.22605 10.733 6.82438C10.733 6.42271 10.4064 6.09521 10.0039 6.09521C9.59969 6.09521 9.27052 6.42271 9.27052 6.82438ZM10.7247 9.46838C10.7247 9.06672 10.3972 8.73921 9.99552 8.73921C9.59386 8.73921 9.26636 9.06672 9.26636 9.46838V13.1517C9.26636 13.5534 9.59386 13.8809 9.99552 13.8809C10.3972 13.8809 10.7247 13.5534 10.7247 13.1517V9.46838Z" fill="#5B5B5B"/>
</svg>
