<svg width="55" height="60" viewBox="0 0 55 60" fill="none" xmlns="http://www.w3.org/2000/svg">
<path fill-rule="evenodd" clip-rule="evenodd" d="M29.1986 2.66069C29.3916 2.54162 29.5393 2.35597 29.6095 2.13574C31.3789 2.18451 33.1407 2.5115 34.8285 3.11499C37.9265 4.22265 40.6272 6.20878 42.6063 8.82135C42.4995 8.97603 42.437 9.16365 42.437 9.36589C42.437 9.89556 42.8661 10.325 43.3954 10.325C43.9248 10.325 44.3539 9.89556 44.3539 9.36589C44.3539 8.83622 43.9248 8.40683 43.3954 8.40683C43.2825 8.40683 43.1741 8.42638 43.0735 8.46228C41.4535 6.32785 39.3619 4.59084 36.9572 3.39043C34.6669 2.24712 32.1588 1.62359 29.6112 1.557C29.4894 1.16738 29.1259 0.884644 28.6963 0.884644C28.2489 0.884644 27.8731 1.19142 27.7675 1.60623C25.4878 1.78785 23.2699 2.41506 21.238 3.44805C21.0708 3.30582 20.8542 3.22 20.6175 3.22C20.0882 3.22 19.6591 3.64939 19.6591 4.17906C19.6591 4.23662 19.6641 4.29299 19.6738 4.34776C17.1729 5.96369 15.1253 8.19248 13.726 10.8233C13.5679 11.1206 13.4186 11.422 13.2783 11.727C13.1659 11.686 13.0446 11.6637 12.9181 11.6637C12.3375 11.6637 11.8668 12.1347 11.8668 12.7157C11.8668 13.154 12.1347 13.5297 12.5155 13.6878C12.1604 14.7934 11.9159 15.9324 11.7863 17.0876C11.3397 17.1693 11.0012 17.5606 11.0012 18.031C11.0012 18.4624 11.2858 18.8272 11.6773 18.9478C11.6764 19.1283 11.6782 19.309 11.6829 19.4898C11.7096 20.5283 11.8286 21.5583 12.0365 22.5681C11.8082 22.7611 11.6633 23.0497 11.6633 23.3721C11.6633 23.8867 12.0325 24.315 12.5203 24.4062C12.7675 25.1734 13.0679 25.9238 13.4197 26.652C13.3044 26.8103 13.2363 27.0053 13.2363 27.2163C13.2363 27.7459 13.6655 28.1753 14.1948 28.1753C14.2135 28.1753 14.232 28.1748 14.2504 28.1737C15.7726 30.6605 17.8921 32.727 20.4161 34.1851C20.4108 34.2304 20.4081 34.2765 20.4081 34.3232C20.4081 34.9686 20.931 35.4918 21.576 35.4918C21.8912 35.4918 22.1772 35.3669 22.3873 35.1638C24.5207 36.0603 26.8174 36.5267 29.1449 36.528C31.9462 36.524 34.7056 35.8478 37.1917 34.5561C39.3675 33.4257 41.2784 31.8527 42.8041 29.9424C42.9371 30.0123 43.0886 30.0519 43.2492 30.0519C43.7786 30.0519 44.2077 29.6225 44.2077 29.0928C44.2077 28.5632 43.7786 28.1338 43.2492 28.1338C42.7199 28.1338 42.2908 28.5632 42.2908 29.0928C42.2908 29.2468 42.327 29.3923 42.3915 29.5212C40.3591 32.0914 37.6187 34.0206 34.4994 35.0639C31.0818 36.2069 27.3885 36.2264 23.959 35.1197C23.5308 34.9815 23.1095 34.8266 22.696 34.6557C22.7272 34.5503 22.744 34.4387 22.744 34.3232C22.744 34.2378 22.7348 34.1545 22.7174 34.0743C25.5556 32.5764 26.6314 29.2033 27.0036 27.5011C27.047 27.4965 27.0896 27.4893 27.1312 27.4796L29.8927 32.7944C29.7108 32.969 29.5975 33.2146 29.5975 33.4867C29.5975 34.0164 30.0266 34.4458 30.556 34.4458C31.0853 34.4458 31.5144 34.0164 31.5144 33.4867C31.5144 32.957 31.0853 32.5277 30.556 32.5277C30.5093 32.5277 30.4634 32.531 30.4185 32.5375L27.7682 27.4366C28.9976 28.1432 31.8865 28.1513 34.6724 27.4259C37.0309 26.8035 41.089 25.1833 42.8599 21.1559C42.8776 21.1569 42.8953 21.1574 42.9132 21.1574C43.4426 21.1574 43.8717 20.728 43.8717 20.1983C43.8717 19.6686 43.4426 19.2393 42.9132 19.2393C42.3839 19.2393 41.9548 19.6686 41.9548 20.1983C41.9548 20.5012 42.0951 20.7713 42.3142 20.947C40.6354 24.7221 36.7764 26.2568 34.5301 26.8465C31.5346 27.6332 28.6389 27.4477 27.8882 26.792C27.924 26.6861 27.9433 26.5728 27.9433 26.4549C27.9433 25.8739 27.4726 25.4029 26.892 25.4029C26.7132 25.4029 26.5448 25.4476 26.3974 25.5264C23.8153 23.1827 18.5746 20.9714 17.0185 20.3446C17.1114 20.1699 17.1769 19.9785 17.2092 19.776C19.9378 20.383 22.7215 20.7081 25.5166 20.7461C27.6679 20.7461 29.8686 20.4975 31.6284 19.7543C31.8204 19.9617 32.0949 20.0915 32.3998 20.0915C32.9804 20.0915 33.4511 19.6205 33.4511 19.0395C33.4511 18.4585 32.9804 17.9875 32.3998 17.9875C31.8191 17.9875 31.3484 18.4585 31.3484 19.0395C31.3484 19.1049 31.3544 19.1689 31.3658 19.231C26.7201 21.1584 18.4667 19.4742 17.2102 19.2005C17.1883 19.0599 17.1504 18.9246 17.0984 18.7965C18.4471 18.1906 22.4165 16.4934 27.0986 15.2887C27.3213 15.4924 27.6179 15.6166 27.9434 15.6166C28.4766 15.6166 28.932 15.2833 29.1129 14.8136C33.1279 13.9562 37.4478 13.5902 40.9868 14.6168C41.0981 15.0233 41.4698 15.3219 41.9113 15.3219C42.4407 15.3219 42.8698 14.8926 42.8698 14.3629C42.8698 13.8332 42.4407 13.4038 41.9113 13.4038C41.5033 13.4038 41.1549 13.6589 41.0165 14.0184C37.4309 13.0099 33.1572 13.3435 29.1817 14.1707C29.1255 13.8051 28.9114 13.4915 28.6112 13.3019C28.9556 12.188 29.4297 10.3934 29.6405 8.40608C30.1731 8.38751 30.6184 8.02548 30.7621 7.53452C32.731 7.65702 34.898 8.2075 37.2006 9.43599C37.2364 9.93294 37.6507 10.325 38.1565 10.325C38.6859 10.325 39.115 9.89556 39.115 9.36589C39.115 8.83622 38.6859 8.40683 38.1565 8.40683C37.816 8.40683 37.5171 8.58446 37.347 8.85214C35.003 7.62228 32.7952 7.06881 30.7856 6.94514C30.681 6.43961 30.2622 6.04912 29.7426 5.98713C29.7101 4.85116 29.5506 3.71522 29.1986 2.66069ZM16.7895 18.2908C18.0912 17.6949 22.0346 15.976 26.7492 14.7433C26.7111 14.6233 26.6905 14.4955 26.6905 14.3629C26.6905 13.6705 27.2514 13.1092 27.9434 13.1092C27.9796 13.1092 28.0155 13.1107 28.051 13.1137C28.3853 12.0124 28.849 10.2302 29.051 8.27703C28.7691 8.1345 28.5503 7.88513 28.4478 7.58211C25.0615 7.93285 22.4707 9.44103 21.0953 10.4312C21.2016 10.6348 21.2618 10.8663 21.2618 11.112C21.2618 11.9002 20.6422 12.5437 19.8638 12.5814C18.7664 15.7756 17.189 17.3782 16.4577 17.9887C16.5803 18.0755 16.6918 18.1771 16.7895 18.2908ZM15.8653 17.7122C16.3221 17.3653 18.0578 15.8743 19.2554 12.4823C18.7085 12.268 18.3212 11.7352 18.3212 11.112C18.3212 10.2994 18.9794 9.64075 19.7915 9.64075C19.8651 9.64075 19.9374 9.64617 20.0081 9.65661C20.2577 8.34143 20.4183 6.8367 20.4399 5.12168C20.247 5.08551 20.0744 4.99147 19.9408 4.85826C18.2953 5.92805 16.8383 7.28326 15.644 8.87214C14.8926 9.87169 14.2589 10.9456 13.7501 12.0724C13.8876 12.2502 13.9695 12.4734 13.9695 12.7157C13.9695 12.9564 13.8887 13.1783 13.7527 13.3556L15.0712 17.6819C15.1778 17.6626 15.2875 17.6525 15.3996 17.6525C15.5605 17.6525 15.7166 17.6733 15.8653 17.7122ZM13.9215 20.5686L13.405 22.5787C13.6262 22.7715 13.766 23.0555 13.766 23.3721C13.766 23.8137 13.494 24.1918 13.1085 24.3478C13.3294 25.0152 13.592 25.6689 13.895 26.305C13.9893 26.274 14.0901 26.2572 14.1948 26.2572C14.2884 26.2572 14.3789 26.2706 14.4645 26.2957C14.8539 24.9515 15.0113 22.7865 15.0601 21.2863C14.5947 21.1991 14.1913 20.936 13.9215 20.5686ZM15.6539 21.3002C15.6119 22.7211 15.4672 25.1419 14.9709 26.6534C15.0596 26.7756 15.1202 26.9196 15.1431 27.0758C17.453 26.6966 22.8136 25.9077 25.8746 26.1887C25.8981 26.0987 25.9332 26.0133 25.9782 25.9344C23.4017 23.6141 17.9334 21.3411 16.6483 20.8263C16.3796 21.0767 16.0355 21.2472 15.6539 21.3002ZM28.623 2.8C28.245 2.77139 27.9282 2.5234 27.7995 2.18296C26.6168 2.27745 25.4409 2.49689 24.2916 2.84178C23.341 3.12704 22.4224 3.49401 21.545 3.93623C21.5652 4.01379 21.576 4.09516 21.576 4.17906C21.576 4.55964 21.3545 4.88845 21.0334 5.0434C21.015 6.87618 20.8449 8.47635 20.5778 9.86863C20.6299 9.90166 20.6797 9.93789 20.7271 9.97702C22.1602 8.94102 24.8652 7.35955 28.4001 6.99463C28.4697 6.57015 28.7593 6.21977 29.1479 6.06459C29.1226 4.94126 28.9704 3.82342 28.623 2.8ZM26.421 27.3957C26.0556 29.0018 25.0296 32.1642 22.4514 33.5495C22.2374 33.3073 21.9245 33.1545 21.576 33.1545C21.1888 33.1545 20.8456 33.3431 20.6331 33.6334C18.6015 32.4477 16.8278 30.8435 15.4375 28.9122C15.2137 28.6014 15.0011 28.2838 14.7999 27.9601C14.8889 27.8875 14.9647 27.7991 15.023 27.6994C18.6114 27.0981 23.3664 26.5431 25.8909 26.7772C25.9777 27.0475 26.1708 27.2701 26.421 27.3957ZM12.2518 18.9447C12.2458 20.0871 12.3556 21.2207 12.5759 22.3292C12.6213 22.3232 12.6676 22.3201 12.7146 22.3201C12.7722 22.3201 12.8286 22.3247 12.8836 22.3336L13.5814 19.7362C13.5689 19.6501 13.5624 19.5621 13.5624 19.4726C13.5624 19.3675 13.5713 19.2645 13.5885 19.1643L12.6472 18.6992C12.5389 18.8109 12.4035 18.8962 12.2518 18.9447ZM12.9071 18.177L13.7806 18.6086C13.9496 18.2968 14.2073 18.04 14.5197 17.8721L13.2522 13.7134C13.202 13.7303 13.1501 13.7434 13.0968 13.7525C12.7343 14.8558 12.4853 15.9967 12.3558 17.1575C12.6875 17.3083 12.9182 17.6427 12.9182 18.031C12.9182 18.0807 12.9144 18.1294 12.9071 18.177ZM31.5164 24.9204C32.0971 24.9204 32.5678 24.4494 32.5678 23.8684C32.5678 23.2874 32.0971 22.8164 31.5164 22.8164C30.9358 22.8164 30.4651 23.2874 30.4651 23.8684C30.4651 24.4494 30.9358 24.9204 31.5164 24.9204ZM34.0934 32.3082C34.6227 32.3082 35.0518 31.8788 35.0518 31.3491C35.0518 30.8194 34.6227 30.39 34.0934 30.39C33.564 30.39 33.1349 30.8194 33.1349 31.3491C33.1349 31.8788 33.564 32.3082 34.0934 32.3082ZM23.8368 7.05822C24.3662 7.05822 24.7953 6.62883 24.7953 6.09916C24.7953 5.56948 24.3662 5.1401 23.8368 5.1401C23.3075 5.1401 22.8783 5.56948 22.8783 6.09916C22.8783 6.62883 23.3075 7.05822 23.8368 7.05822ZM35.3681 5.13812C35.3681 5.66779 34.9389 6.09718 34.4096 6.09718C33.8802 6.09718 33.4511 5.66779 33.4511 5.13812C33.4511 4.60845 33.8802 4.17906 34.4096 4.17906C34.9389 4.17906 35.3681 4.60845 35.3681 5.13812ZM24.7953 23.3721C25.3246 23.3721 25.7538 22.9427 25.7538 22.413C25.7538 21.8834 25.3246 21.454 24.7953 21.454C24.2659 21.454 23.8368 21.8834 23.8368 22.413C23.8368 22.9427 24.2659 23.3721 24.7953 23.3721ZM17.4397 10.3269C17.4397 10.8566 17.0106 11.286 16.4813 11.286C15.9519 11.286 15.5228 10.8566 15.5228 10.3269C15.5228 9.79725 15.9519 9.36787 16.4813 9.36787C17.0106 9.36787 17.4397 9.79725 17.4397 10.3269ZM39.115 12.7157C39.5024 12.7157 39.8165 12.4014 39.8165 12.0137C39.8165 11.626 39.5024 11.3117 39.115 11.3117C38.7275 11.3117 38.4134 11.626 38.4134 12.0137C38.4134 12.4014 38.7275 12.7157 39.115 12.7157ZM24.7774 12.7157C24.7774 13.1034 24.4633 13.4177 24.0759 13.4177C23.6884 13.4177 23.3743 13.1034 23.3743 12.7157C23.3743 12.328 23.6884 12.0137 24.0759 12.0137C24.4633 12.0137 24.7774 12.328 24.7774 12.7157ZM38.4134 21.9899C38.8009 21.9899 39.115 21.6756 39.115 21.2879C39.115 20.9002 38.8009 20.5859 38.4134 20.5859C38.026 20.5859 37.7119 20.9002 37.7119 21.2879C37.7119 21.6756 38.026 21.9899 38.4134 21.9899ZM20.7499 30.0519C20.7499 30.5816 20.3208 31.011 19.7914 31.011C19.2621 31.011 18.833 30.5816 18.833 30.0519C18.833 29.5222 19.2621 29.0928 19.7914 29.0928C20.3208 29.0928 20.7499 29.5222 20.7499 30.0519ZM18.3211 24.8848C18.8505 24.8848 19.2796 24.4555 19.2796 23.9258C19.2796 23.3961 18.8505 22.9667 18.3211 22.9667C17.7918 22.9667 17.3627 23.3961 17.3627 23.9258C17.3627 24.4555 17.7918 24.8848 18.3211 24.8848Z" fill="url(#paint0_linear_18_1108)"/>
<path d="M4.23718 52.117C3.42212 52.117 2.69081 51.9328 2.04323 51.5643C1.40681 51.1959 0.904379 50.6879 0.535928 50.0403C0.178643 49.3816 0 48.6223 0 47.7626C0 46.9029 0.178643 46.1492 0.535928 45.5017C0.904379 44.8429 1.40681 44.3293 2.04323 43.9609C2.69081 43.5924 3.42212 43.4082 4.23718 43.4082C5.26438 43.4082 6.1241 43.6762 6.81634 44.2121C7.51974 44.748 7.97193 45.4737 8.1729 46.3893H6.3139C6.20225 45.9315 5.95662 45.5742 5.577 45.3174C5.19739 45.0606 4.75078 44.9322 4.23718 44.9322C3.80174 44.9322 3.39979 45.0439 3.03134 45.2672C2.66289 45.4793 2.36702 45.7975 2.14371 46.2218C1.92041 46.6349 1.80876 47.1485 1.80876 47.7626C1.80876 48.3767 1.92041 48.8959 2.14371 49.3201C2.36702 49.7333 2.66289 50.0515 3.03134 50.2748C3.39979 50.4981 3.80174 50.6097 4.23718 50.6097C4.75078 50.6097 5.19739 50.4813 5.577 50.2245C5.95662 49.9677 6.20225 49.6049 6.3139 49.1359H8.1729C7.9831 50.0291 7.53649 50.7493 6.83308 51.2964C6.12968 51.8435 5.26438 52.117 4.23718 52.117Z" fill="black"/>
<path d="M12.9789 52.117C12.1861 52.117 11.4716 51.9384 10.8351 51.5811C10.2099 51.2126 9.71304 50.7046 9.34459 50.0571C8.97614 49.3983 8.79192 48.6335 8.79192 47.7626C8.79192 46.8917 8.97614 46.1325 9.34459 45.4849C9.72421 44.8262 10.2322 44.3182 10.8686 43.9609C11.5051 43.5924 12.214 43.4082 12.9956 43.4082C13.7883 43.4082 14.4973 43.5924 15.1226 43.9609C15.759 44.3182 16.2614 44.8262 16.6299 45.4849C17.0095 46.1325 17.1993 46.8917 17.1993 47.7626C17.1993 48.6335 17.0095 49.3983 16.6299 50.0571C16.2614 50.7046 15.759 51.2126 15.1226 51.5811C14.4862 51.9384 13.7716 52.117 12.9789 52.117ZM12.9789 50.593C13.4031 50.593 13.7939 50.4869 14.1512 50.2748C14.5197 50.0626 14.8155 49.75 15.0388 49.3369C15.2621 48.9126 15.3738 48.3879 15.3738 47.7626C15.3738 47.1374 15.2621 46.6182 15.0388 46.2051C14.8267 45.7808 14.5364 45.4626 14.1679 45.2504C13.8107 45.0383 13.4199 44.9322 12.9956 44.9322C12.5713 44.9322 12.175 45.0383 11.8065 45.2504C11.4492 45.4626 11.1589 45.7808 10.9356 46.2051C10.7123 46.6182 10.6007 47.1374 10.6007 47.7626C10.6007 48.3879 10.7123 48.9126 10.9356 49.3369C11.1589 49.75 11.4492 50.0626 11.8065 50.2748C12.1638 50.4869 12.5546 50.593 12.9789 50.593Z" fill="black"/>
<path d="M18.1143 51.9161V43.6092H19.6886L19.8225 45.0662C20.0793 44.5526 20.4534 44.1507 20.9446 43.8604C21.4471 43.5589 22.0221 43.4082 22.6697 43.4082C23.6745 43.4082 24.4617 43.7208 25.0311 44.3461C25.6117 44.9713 25.902 45.9036 25.902 47.1429V51.9161H24.1435V47.3272C24.1435 45.7194 23.4847 44.9155 22.1672 44.9155C21.5085 44.9155 20.9614 45.15 20.5259 45.6189C20.1017 46.0878 19.8895 46.7577 19.8895 47.6286V51.9161H18.1143Z" fill="black"/>
<path d="M30.773 52.117C29.9691 52.117 29.2601 51.9272 28.646 51.5476C28.0319 51.168 27.5518 50.6488 27.2057 49.9901C26.8596 49.3313 26.6865 48.5832 26.6865 47.7459C26.6865 46.9085 26.8596 46.166 27.2057 45.5184C27.5518 44.8597 28.0319 44.3461 28.646 43.9776C29.2712 43.598 29.9858 43.4082 30.7897 43.4082C31.4484 43.4082 32.0235 43.5366 32.5147 43.7934C33.0172 44.0502 33.4079 44.4131 33.6871 44.882V39.8577H35.4623V51.9161H33.8713L33.6871 50.6265C33.4191 51.0173 33.0506 51.3634 32.5817 51.6648C32.1128 51.9663 31.5099 52.117 30.773 52.117ZM31.0912 50.5762C31.8504 50.5762 32.4701 50.3139 32.9502 49.7891C33.4414 49.2643 33.6871 48.5888 33.6871 47.7626C33.6871 46.9252 33.4414 46.2497 32.9502 45.7361C32.4701 45.2114 31.8504 44.949 31.0912 44.949C30.3319 44.949 29.7067 45.2114 29.2154 45.7361C28.7241 46.2497 28.4785 46.9252 28.4785 47.7626C28.4785 48.3097 28.5902 48.7954 28.8135 49.2197C29.0368 49.6439 29.3438 49.9789 29.7346 50.2245C30.1365 50.459 30.5887 50.5762 31.0912 50.5762Z" fill="black"/>
<path d="M39.7606 52.117C38.7557 52.117 37.963 51.8044 37.3824 51.1792C36.813 50.5539 36.5283 49.6216 36.5283 48.3823V43.6092H38.3036V48.1981C38.3036 49.8058 38.9623 50.6097 40.2798 50.6097C40.9385 50.6097 41.48 50.3753 41.9043 49.9063C42.3286 49.4374 42.5407 48.7675 42.5407 47.8966V43.6092H44.316V51.9161H42.7417L42.6077 50.459C42.3509 50.9726 41.9713 51.3801 41.4689 51.6816C40.9776 51.9719 40.4082 52.117 39.7606 52.117Z" fill="black"/>
<path d="M46.5743 42.0349C46.2394 42.0349 45.9602 41.9344 45.7369 41.7334C45.5248 41.5213 45.4187 41.2589 45.4187 40.9463C45.4187 40.6336 45.5248 40.3768 45.7369 40.1759C45.9602 39.9637 46.2394 39.8577 46.5743 39.8577C46.9093 39.8577 47.1828 39.9637 47.395 40.1759C47.6183 40.3768 47.7299 40.6336 47.7299 40.9463C47.7299 41.2589 47.6183 41.5213 47.395 41.7334C47.1828 41.9344 46.9093 42.0349 46.5743 42.0349ZM45.6867 51.9161V43.6092H47.462V51.9161H45.6867Z" fill="black"/>
<path d="M52.2841 51.9161C51.4691 51.9161 50.8215 51.7207 50.3414 51.3299C49.8613 50.9279 49.6212 50.2189 49.6212 49.2029V45.0997H48.1977V43.6092H49.6212L49.839 41.4989H51.3965V43.6092H53.7412V45.0997H51.3965V49.2029C51.3965 49.6607 51.4914 49.9789 51.6812 50.1575C51.8822 50.325 52.2227 50.4088 52.7028 50.4088H53.6575V51.9161H52.2841Z" fill="black"/>
<path d="M3.34068 59.9392C2.76535 59.9392 2.24913 59.8092 1.79201 59.5491C1.34278 59.289 0.988118 58.9304 0.728035 58.4733C0.475833 58.0083 0.349733 57.4724 0.349733 56.8655C0.349733 56.2586 0.475833 55.7267 0.728035 55.2695C0.988118 54.8045 1.34278 54.442 1.79201 54.1819C2.24913 53.9218 2.76535 53.7918 3.34068 53.7918C4.06576 53.7918 4.67262 53.981 5.16126 54.3593C5.65779 54.7376 5.97698 55.2498 6.11884 55.8961H4.80661C4.72779 55.573 4.5544 55.3208 4.28644 55.1395C4.01848 54.9582 3.70322 54.8676 3.34068 54.8676C3.03331 54.8676 2.74959 54.9464 2.4895 55.104C2.22942 55.2538 2.02057 55.4784 1.86294 55.7779C1.70532 56.0695 1.6265 56.432 1.6265 56.8655C1.6265 57.299 1.70532 57.6655 1.86294 57.9649C2.02057 58.2566 2.22942 58.4812 2.4895 58.6388C2.74959 58.7964 3.03331 58.8752 3.34068 58.8752C3.70322 58.8752 4.01848 58.7846 4.28644 58.6033C4.5544 58.4221 4.72779 58.1659 4.80661 57.8349H6.11884C5.98486 58.4654 5.66961 58.9738 5.17309 59.3599C4.67656 59.7461 4.06576 59.9392 3.34068 59.9392Z" fill="black"/>
<path d="M9.51128 59.9392C8.95171 59.9392 8.4473 59.8131 7.99807 59.5609C7.55672 59.3008 7.206 58.9422 6.94592 58.4851C6.68583 58.0201 6.55579 57.4802 6.55579 56.8655C6.55579 56.2508 6.68583 55.7148 6.94592 55.2577C7.21388 54.7927 7.57248 54.4341 8.02171 54.1819C8.47095 53.9218 8.97141 53.7918 9.5231 53.7918C10.0827 53.7918 10.5831 53.9218 11.0245 54.1819C11.4737 54.4341 11.8284 54.7927 12.0885 55.2577C12.3564 55.7148 12.4904 56.2508 12.4904 56.8655C12.4904 57.4802 12.3564 58.0201 12.0885 58.4851C11.8284 58.9422 11.4737 59.3008 11.0245 59.5609C10.5753 59.8131 10.0709 59.9392 9.51128 59.9392ZM9.51128 58.8634C9.81077 58.8634 10.0866 58.7885 10.3388 58.6388C10.5989 58.4891 10.8078 58.2684 10.9654 57.9768C11.123 57.6773 11.2018 57.3069 11.2018 56.8655C11.2018 56.4242 11.123 56.0577 10.9654 55.7661C10.8156 55.4666 10.6107 55.242 10.3506 55.0922C10.0984 54.9425 9.82259 54.8676 9.5231 54.8676C9.22361 54.8676 8.94383 54.9425 8.68374 55.0922C8.43154 55.242 8.22663 55.4666 8.069 55.7661C7.91138 56.0577 7.83256 56.4242 7.83256 56.8655C7.83256 57.3069 7.91138 57.6773 8.069 57.9768C8.22663 58.2684 8.43154 58.4891 8.68374 58.6388C8.93594 58.7885 9.21179 58.8634 9.51128 58.8634Z" fill="black"/>
<path d="M13.1363 59.7974V53.9337H14.2475L14.3539 54.7612C14.5431 54.4617 14.7913 54.2253 15.0987 54.0519C15.414 53.8785 15.7765 53.7918 16.1863 53.7918C17.1163 53.7918 17.7626 54.1583 18.1251 54.8912C18.3379 54.5523 18.6217 54.2844 18.9763 54.0873C19.3389 53.8903 19.729 53.7918 20.1467 53.7918C20.8796 53.7918 21.455 54.0125 21.8727 54.4538C22.2904 54.8952 22.4993 55.5533 22.4993 56.4281V59.7974H21.2461V56.5581C21.2461 55.4232 20.8127 54.8558 19.9457 54.8558C19.5044 54.8558 19.1418 55.0213 18.8581 55.3523C18.5823 55.6833 18.4443 56.1562 18.4443 56.7709V59.7974H17.1912V56.5581C17.1912 55.4232 16.7538 54.8558 15.879 54.8558C15.4455 54.8558 15.0869 55.0213 14.8032 55.3523C14.5273 55.6833 14.3894 56.1562 14.3894 56.7709V59.7974H13.1363Z" fill="black"/>
<path d="M23.256 59.7974V53.9337H24.3673L24.4737 54.7612C24.6629 54.4617 24.9111 54.2253 25.2185 54.0519C25.5337 53.8785 25.8963 53.7918 26.3061 53.7918C27.2361 53.7918 27.8824 54.1583 28.2449 54.8912C28.4577 54.5523 28.7414 54.2844 29.0961 54.0873C29.4586 53.8903 29.8487 53.7918 30.2665 53.7918C30.9994 53.7918 31.5748 54.0125 31.9925 54.4538C32.4102 54.8952 32.619 55.5533 32.619 56.4281V59.7974H31.3659V56.5581C31.3659 55.4232 30.9324 54.8558 30.0655 54.8558C29.6241 54.8558 29.2616 55.0213 28.9779 55.3523C28.702 55.6833 28.5641 56.1562 28.5641 56.7709V59.7974H27.311V56.5581C27.311 55.4232 26.8736 54.8558 25.9987 54.8558C25.5653 54.8558 25.2067 55.0213 24.9229 55.3523C24.6471 55.6833 24.5092 56.1562 24.5092 56.7709V59.7974H23.256Z" fill="black"/>
<path d="M36.1185 59.9392C35.5432 59.9392 35.0309 59.8131 34.5817 59.5609C34.1403 59.3008 33.7935 58.9422 33.5413 58.4851C33.2891 58.028 33.163 57.496 33.163 56.8892C33.163 56.2744 33.2852 55.7345 33.5295 55.2695C33.7817 54.8045 34.1285 54.442 34.5698 54.1819C35.0191 53.9218 35.5392 53.7918 36.1303 53.7918C36.7057 53.7918 37.2061 53.9218 37.6317 54.1819C38.0573 54.4341 38.3883 54.773 38.6248 55.1986C38.8612 55.6242 38.9794 56.0931 38.9794 56.6054C38.9794 56.6842 38.9755 56.7709 38.9676 56.8655C38.9676 56.9522 38.9637 57.0507 38.9558 57.1611H34.3925C34.4319 57.7285 34.6171 58.162 34.9481 58.4615C35.287 58.7531 35.6772 58.8989 36.1185 58.8989C36.4732 58.8989 36.7687 58.8201 37.0051 58.6624C37.2495 58.4969 37.4307 58.2763 37.549 58.0004H38.8021C38.6445 58.5521 38.3292 59.0132 37.8563 59.3836C37.3913 59.754 36.8121 59.9392 36.1185 59.9392ZM36.1185 54.8203C35.7008 54.8203 35.3304 54.9464 35.0072 55.1986C34.6841 55.4429 34.4871 55.8134 34.4161 56.3099H37.7263C37.7026 55.8528 37.5411 55.4902 37.2416 55.2223C36.9421 54.9543 36.5677 54.8203 36.1185 54.8203Z" fill="black"/>
<path d="M39.5703 59.7974V53.9337H40.6934L40.7998 55.0449C41.0047 54.6587 41.2885 54.3553 41.651 54.1346C42.0214 53.9061 42.4667 53.7918 42.9869 53.7918V55.104H42.644C42.2973 55.104 41.9859 55.1631 41.7101 55.2814C41.4421 55.3917 41.2254 55.5848 41.0599 55.8606C40.9023 56.1286 40.8235 56.503 40.8235 56.9837V59.7974H39.5703Z" fill="black"/>
<path d="M45.9685 59.9392C45.3932 59.9392 44.8769 59.8092 44.4198 59.5491C43.9706 59.289 43.6159 58.9304 43.3558 58.4733C43.1036 58.0083 42.9775 57.4724 42.9775 56.8655C42.9775 56.2586 43.1036 55.7267 43.3558 55.2695C43.6159 54.8045 43.9706 54.442 44.4198 54.1819C44.8769 53.9218 45.3932 53.7918 45.9685 53.7918C46.6936 53.7918 47.3004 53.981 47.7891 54.3593C48.2856 54.7376 48.6048 55.2498 48.7467 55.8961H47.4344C47.3556 55.573 47.1822 55.3208 46.9142 55.1395C46.6463 54.9582 46.331 54.8676 45.9685 54.8676C45.6611 54.8676 45.3774 54.9464 45.1173 55.104C44.8572 55.2538 44.6484 55.4784 44.4907 55.7779C44.3331 56.0695 44.2543 56.432 44.2543 56.8655C44.2543 57.299 44.3331 57.6655 44.4907 57.9649C44.6484 58.2566 44.8572 58.4812 45.1173 58.6388C45.3774 58.7964 45.6611 58.8752 45.9685 58.8752C46.331 58.8752 46.6463 58.7846 46.9142 58.6033C47.1822 58.4221 47.3556 58.1659 47.4344 57.8349H48.7467C48.6127 58.4654 48.2974 58.9738 47.8009 59.3599C47.3044 59.7461 46.6936 59.9392 45.9685 59.9392Z" fill="black"/>
<path d="M52.1391 59.9392C51.5638 59.9392 51.0515 59.8131 50.6022 59.5609C50.1609 59.3008 49.8141 58.9422 49.5619 58.4851C49.3097 58.028 49.1836 57.496 49.1836 56.8892C49.1836 56.2744 49.3058 55.7345 49.5501 55.2695C49.8023 54.8045 50.1491 54.442 50.5904 54.1819C51.0396 53.9218 51.5598 53.7918 52.1509 53.7918C52.7262 53.7918 53.2267 53.9218 53.6523 54.1819C54.0779 54.4341 54.4089 54.773 54.6453 55.1986C54.8818 55.6242 55 56.0931 55 56.6054C55 56.6842 54.9961 56.7709 54.9882 56.8655C54.9882 56.9522 54.9842 57.0507 54.9764 57.1611H50.4131C50.4525 57.7285 50.6377 58.162 50.9687 58.4615C51.3076 58.7531 51.6977 58.8989 52.1391 58.8989C52.4937 58.8989 52.7893 58.8201 53.0257 58.6624C53.2701 58.4969 53.4513 58.2763 53.5695 58.0004H54.8227C54.665 58.5521 54.3498 59.0132 53.8769 59.3836C53.4119 59.754 52.8326 59.9392 52.1391 59.9392ZM52.1391 54.8203C51.7214 54.8203 51.351 54.9464 51.0278 55.1986C50.7047 55.4429 50.5077 55.8134 50.4367 56.3099H53.7469C53.7232 55.8528 53.5617 55.4902 53.2622 55.2223C52.9627 54.9543 52.5883 54.8203 52.1391 54.8203Z" fill="black"/>
<defs>
<linearGradient id="paint0_linear_18_1108" x1="40.7531" y1="12.8051" x2="14.5478" y2="36.5475" gradientUnits="userSpaceOnUse">
<stop offset="0.386984" stop-color="#393939"/>
<stop offset="1" stop-color="white"/>
</linearGradient>
</defs>
</svg>
