<svg width="20" height="20" viewBox="0 0 20 20" fill="none" xmlns="http://www.w3.org/2000/svg">
<path opacity="0.4" d="M18.3332 13.2835C18.3332 15.6085 16.4665 17.4918 14.1415 17.5001H14.1332H5.87484C3.55817 17.5001 1.6665 15.6251 1.6665 13.3001V13.2918C1.6665 13.2918 1.6715 9.60348 1.67817 7.74848C1.679 7.40014 2.079 7.20514 2.3515 7.42181C4.3315 8.99264 7.87234 11.8568 7.9165 11.8943C8.50817 12.3685 9.25817 12.636 10.0248 12.636C10.7915 12.636 11.5415 12.3685 12.1332 11.8851C12.1773 11.856 15.639 9.07764 17.649 7.48098C17.9223 7.26348 18.324 7.45848 18.3248 7.80598C18.3332 9.64681 18.3332 13.2835 18.3332 13.2835Z" fill="#5B5B5B"/>
<path d="M17.8967 4.72803C17.1751 3.36803 15.7551 2.49969 14.1917 2.49969H5.87507C4.31173 2.49969 2.89173 3.36803 2.17007 4.72803C2.0084 5.03219 2.08507 5.41136 2.35423 5.62636L8.54173 10.5755C8.97507 10.9255 9.50007 11.0997 10.0251 11.0997C10.0284 11.0997 10.0309 11.0997 10.0334 11.0997C10.0359 11.0997 10.0392 11.0997 10.0417 11.0997C10.5667 11.0997 11.0917 10.9255 11.5251 10.5755L17.7126 5.62636C17.9817 5.41136 18.0584 5.03219 17.8967 4.72803Z" fill="#5B5B5B"/>
</svg>
