<svg width="20" height="20" viewBox="0 0 20 20" fill="none" xmlns="http://www.w3.org/2000/svg">
<path d="M16.4747 9.70447C15.8659 8.9936 15.5893 8.37757 15.5893 7.33098V6.97513C15.5893 5.6113 15.2754 4.73257 14.593 3.85385C13.5411 2.48918 11.7704 1.66669 10.0369 1.66669H9.96323C8.26621 1.66669 6.55097 2.45141 5.48091 3.76069C4.76119 4.65704 4.41085 5.57353 4.41085 6.97513V7.33098C4.41085 8.37757 4.15245 8.9936 3.52549 9.70447C3.06417 10.2282 2.91675 10.9013 2.91675 11.6298C2.91675 12.3591 3.1561 13.0498 3.63647 13.6113C4.26343 14.2844 5.1488 14.7141 6.05321 14.7888C7.36262 14.9382 8.67203 14.9944 10.0005 14.9944C11.3281 14.9944 12.6375 14.9004 13.9478 14.7888C14.8514 14.7141 15.7367 14.2844 16.3637 13.6113C16.8432 13.0498 17.0834 12.3591 17.0834 11.6298C17.0834 10.9013 16.936 10.2282 16.4747 9.70447Z" fill="#5B5B5B"/>
<path opacity="0.4" d="M11.674 16.0236C11.2574 15.9347 8.71888 15.9347 8.30229 16.0236C7.94616 16.1059 7.56104 16.2972 7.56104 16.7169C7.58174 17.1172 7.81613 17.4705 8.14079 17.6946L8.13996 17.6955C8.55987 18.0228 9.05266 18.2309 9.56864 18.3056C9.8436 18.3434 10.1235 18.3417 10.4084 18.3056C10.9236 18.2309 11.4164 18.0228 11.8363 17.6955L11.8355 17.6946C12.1601 17.4705 12.3945 17.1172 12.4152 16.7169C12.4152 16.2972 12.0301 16.1059 11.674 16.0236Z" fill="#5B5B5B"/>
</svg>
