<svg width="20" height="20" viewBox="0 0 20 20" fill="none" xmlns="http://www.w3.org/2000/svg">
<path opacity="0.4" d="M15.6741 7.51752C15.2978 7.51752 14.7995 7.50919 14.179 7.50919C12.6657 7.50919 11.4214 6.25669 11.4214 4.72919V2.04919C11.4214 1.83835 11.253 1.66669 11.0443 1.66669H6.63644C4.57939 1.66669 2.91675 3.35502 2.91675 5.42419V14.4034C2.91675 16.5742 4.6586 18.3334 6.80806 18.3334H13.372C15.4216 18.3334 17.0834 16.6559 17.0834 14.585V7.89252C17.0834 7.68085 16.9159 7.51002 16.7063 7.51085C16.354 7.51335 15.9315 7.51752 15.6741 7.51752Z" fill="#5B5B5B"/>
<path opacity="0.4" d="M13.4034 2.13941C13.1542 1.88025 12.7192 2.05858 12.7192 2.41775V4.61525C12.7192 5.53691 13.4784 6.29525 14.4001 6.29525C14.9809 6.30191 15.7876 6.30358 16.4726 6.30191C16.8234 6.30108 17.0017 5.88191 16.7584 5.62858C15.8792 4.71441 14.3051 3.07608 13.4034 2.13941Z" fill="#5B5B5B"/>
<path fill-rule="evenodd" clip-rule="evenodd" d="M7.4784 9.48967H10.2992C10.6417 9.48967 10.9201 9.21217 10.9201 8.86967C10.9201 8.52717 10.6417 8.24884 10.2992 8.24884H7.4784C7.1359 8.24884 6.8584 8.52717 6.8584 8.86967C6.8584 9.21217 7.1359 9.48967 7.4784 9.48967ZM7.47848 13.6515H12.0151C12.3576 13.6515 12.636 13.374 12.636 13.0315C12.636 12.689 12.3576 12.4107 12.0151 12.4107H7.47848C7.13598 12.4107 6.85848 12.689 6.85848 13.0315C6.85848 13.374 7.13598 13.6515 7.47848 13.6515Z" fill="#5B5B5B"/>
</svg>
