<svg width="20" height="20" viewBox="0 0 20 20" fill="none" xmlns="http://www.w3.org/2000/svg">
<g clip-path="url(#clip0_18_1045)">
<path d="M10.0001 13.3333C10.8841 13.3333 11.732 12.9821 12.3571 12.357C12.9822 11.7319 13.3334 10.884 13.3334 9.99996C13.3334 9.1159 12.9822 8.26806 12.3571 7.64294C11.732 7.01782 10.8841 6.66663 10.0001 6.66663C9.11603 6.66663 8.26818 7.01782 7.64306 7.64294C7.01794 8.26806 6.66675 9.1159 6.66675 9.99996C6.66675 10.884 7.01794 11.7319 7.64306 12.357C8.26818 12.9821 9.11603 13.3333 10.0001 13.3333V13.3333Z" stroke="#E6A500" stroke-width="2" stroke-linecap="round" stroke-linejoin="round"/>
<path d="M14.5834 5.41663L15.8334 4.16663M13.3334 10.3216C12.8301 10.6938 12.2098 10.8729 11.5856 10.8264C10.9613 10.7799 10.3745 10.5108 9.93187 10.0682C9.48923 9.62553 9.22018 9.03871 9.17367 8.41445C9.12715 7.79019 9.30626 7.16998 9.67841 6.66663L13.3334 10.3216ZM10.0001 1.66663V3.33329V1.66663ZM10.0001 16.6666V18.3333V16.6666ZM4.16675 4.16663L5.41675 5.41663L4.16675 4.16663ZM14.5834 14.5833L15.8334 15.8333L14.5834 14.5833ZM1.66675 9.99996H3.33341H1.66675ZM16.6667 9.99996H18.3334H16.6667ZM4.16675 15.8333L5.41675 14.5833L4.16675 15.8333Z" stroke="#E6A500" stroke-width="1.5" stroke-linecap="round" stroke-linejoin="round"/>
</g>
<defs>
<clipPath id="clip0_18_1045">
<rect width="20" height="20" fill="white"/>
</clipPath>
</defs>
</svg>
