<svg width="15" height="14" viewBox="0 0 15 14" fill="none" xmlns="http://www.w3.org/2000/svg">
<path d="M3.9337 0C2.74283 0.647022 1.75039 1.59277 1.05887 2.73957C0.367344 3.88637 0.00180601 5.19266 0 6.52354C0 8.50642 0.80656 10.4081 2.24224 11.8102C3.67793 13.2123 5.62514 14 7.6555 14C9.31076 13.9992 10.9211 13.4744 12.2453 12.5044C13.5694 11.5344 14.5359 10.1713 15 8.61962C14.3369 9.30551 13.5376 9.85222 12.6509 10.2264C11.7642 10.6005 10.8087 10.7943 9.84279 10.7958C7.95745 10.7958 6.14933 10.0644 4.81619 8.76241C3.48306 7.46046 2.73411 5.69463 2.73411 3.85338C2.7353 2.48138 3.15274 1.14048 3.9337 0Z" fill="white"/>
</svg>
