<svg width="20" height="20" viewBox="0 0 20 20" fill="none" xmlns="http://www.w3.org/2000/svg">
<path opacity="0.4" d="M17.7759 6.20213C17.4268 5.98216 16.9976 5.9627 16.6318 6.14883L15.3967 6.77235C14.9401 7.00247 14.6567 7.46778 14.6567 7.98555V12.8468C14.6567 13.3646 14.9401 13.829 15.3967 14.0608L16.6309 14.6835C16.7984 14.7698 16.9776 14.8113 17.1568 14.8113C17.3718 14.8113 17.5851 14.7504 17.7759 14.6311C18.1251 14.4119 18.3334 14.0321 18.3334 13.6158V7.2182C18.3334 6.80196 18.1251 6.42209 17.7759 6.20213Z" fill="#5B5B5B"/>
<path d="M9.921 16.6667H5.09428C3.07593 16.6667 1.66675 15.275 1.66675 13.2826V7.55078C1.66675 5.55755 3.07593 4.16669 5.09428 4.16669H9.921C11.9394 4.16669 13.3485 5.55755 13.3485 7.55078V13.2826C13.3485 15.275 11.9394 16.6667 9.921 16.6667Z" fill="#5B5B5B"/>
</svg>
