<svg width="32" height="32" viewBox="0 0 32 32" fill="none" xmlns="http://www.w3.org/2000/svg">
<path d="M21.5868 2.66675H10.4134C5.56008 2.66675 2.66675 5.56008 2.66675 10.4134V21.5734C2.66675 26.4401 5.56008 29.3334 10.4134 29.3334H21.5734C26.4268 29.3334 29.3201 26.4401 29.3201 21.5867V10.4134C29.3334 5.56008 26.4401 2.66675 21.5868 2.66675ZM23.0134 13.2801L19.9334 17.2534C19.5467 17.7467 19.0001 18.0667 18.3734 18.1334C17.7467 18.2134 17.1334 18.0401 16.6401 17.6534L14.2001 15.7334C14.1067 15.6534 14.0001 15.6534 13.9467 15.6667C13.8934 15.6667 13.8001 15.6934 13.7201 15.8001L10.5467 19.9201C10.3467 20.1734 10.0534 20.3067 9.76008 20.3067C9.54675 20.3067 9.33342 20.2401 9.14675 20.0934C8.70675 19.7601 8.62675 19.1334 8.96008 18.6934L12.1334 14.5734C12.5201 14.0801 13.0667 13.7601 13.6934 13.6801C14.3067 13.6001 14.9334 13.7734 15.4267 14.1601L17.8667 16.0801C17.9601 16.1601 18.0534 16.1601 18.1201 16.1467C18.1734 16.1467 18.2667 16.1201 18.3467 16.0134L21.4267 12.0401C21.7601 11.6001 22.4001 11.5201 22.8267 11.8667C23.2668 12.2267 23.3467 12.8534 23.0134 13.2801Z" fill="url(#paint0_linear_51_1343)"/>
<defs>
<linearGradient id="paint0_linear_51_1343" x1="15.9934" y1="2.66675" x2="15.9934" y2="29.3334" gradientUnits="userSpaceOnUse">
<stop stop-color="#09DE85"/>
<stop offset="0.473958" stop-color="#09DE85"/>
</linearGradient>
</defs>
</svg>
