<svg width="24" height="24" viewBox="0 0 24 24" fill="none" xmlns="http://www.w3.org/2000/svg">
<path d="M1.25 15L1.25 9C1.25 3.57 3.57 1.25 9 1.25L15 1.25C20.43 1.25 22.75 3.57 22.75 9L22.75 15C22.75 20.43 20.43 22.75 15 22.75L9 22.75C3.57 22.75 1.25 20.43 1.25 15ZM21.25 9C21.25 4.39 19.61 2.75 15 2.75L9 2.75C4.39 2.75 2.75 4.39 2.75 9L2.75 15C2.75 19.61 4.39 21.25 9 21.25L15 21.25C19.61 21.25 21.25 19.61 21.25 15L21.25 9Z" fill="#09DE85"/>
<path d="M7.7198 10.7397C7.7198 10.5497 7.7898 10.3597 7.9398 10.2097C8.2298 9.91968 8.7098 9.91968 8.9998 10.2097L11.9998 13.2097L14.9998 10.2097C15.2898 9.91968 15.7698 9.91968 16.0598 10.2097C16.3498 10.4997 16.3498 10.9797 16.0598 11.2697L12.5298 14.7997C12.2398 15.0897 11.7598 15.0897 11.4698 14.7997L7.9398 11.2697C7.7898 11.1197 7.7198 10.9297 7.7198 10.7397Z" fill="#09DE85"/>
</svg>
