<svg width="32" height="32" viewBox="0 0 32 32" fill="none" xmlns="http://www.w3.org/2000/svg">
<path d="M21.5868 2.66675H10.4134C5.56008 2.66675 2.66675 5.56008 2.66675 10.4134V21.5734C2.66675 26.4401 5.56008 29.3334 10.4134 29.3334H21.5734C26.4268 29.3334 29.3201 26.4401 29.3201 21.5867V10.4134C29.3334 5.56008 26.4401 2.66675 21.5868 2.66675ZM13.2134 21.5867C13.2134 22.4401 12.5201 23.1334 11.6534 23.1334C10.8001 23.1334 10.1067 22.4401 10.1067 21.5867V17.2401C10.1067 16.3867 10.8001 15.6934 11.6534 15.6934C12.5201 15.6934 13.2134 16.3867 13.2134 17.2401V21.5867ZM21.8934 21.5867C21.8934 22.4401 21.2001 23.1334 20.3467 23.1334C19.4801 23.1334 18.7867 22.4401 18.7867 21.5867V10.4134C18.7867 9.56008 19.4801 8.86675 20.3467 8.86675C21.2001 8.86675 21.8934 9.56008 21.8934 10.4134V21.5867Z" fill="#09DE85"/>
</svg>
