<svg width="20" height="12" viewBox="0 0 20 12" fill="none" xmlns="http://www.w3.org/2000/svg">
<path d="M13.9064 10.51H18.6614V5.755M1 1L6.15281 6.15281C6.27897 6.27899 6.42875 6.37909 6.5936 6.44739C6.75845 6.51568 6.93514 6.55083 7.11357 6.55083C7.29201 6.55083 7.4687 6.51568 7.63355 6.44739C7.7984 6.37909 7.94818 6.27899 8.07434 6.15281L10.2285 3.99862C10.3547 3.87243 10.5045 3.77233 10.6693 3.70404C10.8342 3.63575 11.0108 3.6006 11.1893 3.6006C11.3677 3.6006 11.5444 3.63575 11.7093 3.70404C11.8741 3.77233 12.0239 3.87243 12.1501 3.99862L17.9821 9.83071" stroke="#FC2D2D" stroke-width="2" stroke-linecap="round" stroke-linejoin="round"/>
</svg>
