<svg width="78" height="78" viewBox="0 0 78 78" fill="none" xmlns="http://www.w3.org/2000/svg">
<path d="M63.1108 61.9972C56.192 67.3245 47.6957 70.1956 38.9636 70.157C30.2315 70.1185 21.761 67.1725 14.8894 61.7843L25.2499 56.9276C25.7434 56.6957 26.2169 56.4237 26.6658 56.1143C26.8021 56.0206 26.9384 55.9227 27.0683 55.8205C28.1958 54.9577 29.124 53.8618 29.7893 52.6076C30.2923 51.6439 30.6265 50.6011 30.7773 49.5245C30.8812 48.826 30.9339 48.1208 30.9348 47.4145C30.9348 46.1966 30.8688 44.9787 30.856 43.7587C30.8475 43.0845 30.8404 42.4095 30.8348 41.7339L31.2606 41.9468L32.3678 42.5196L32.8809 42.6068L38.817 43.6161L45.443 44.7445L45.6431 51.5579L45.7091 53.785L45.7411 54.8666V54.9326L48.3174 55.9802L63.1108 61.9972Z" fill="#F2A196"/>
<path d="M45.7154 54.4279C44.9836 54.5538 44.2307 54.4372 43.5714 54.0958L30.873 43.7097C30.8581 43.2285 30.8453 43.7331 30.8389 43.2519C30.8304 42.5777 30.8233 41.9027 30.8176 41.2271L31.2435 41.44L32.3506 42.0127L32.8638 42.1L38.7999 43.1092L45.4259 44.2377L45.626 51.051L45.692 53.2781L45.7239 54.3598V54.43L45.7154 54.4279Z" fill="#E88870"/>
<path d="M63.1108 61.9973C56.192 67.3246 47.6957 70.1957 38.9636 70.1571C30.2315 70.1186 21.761 67.1726 14.8894 61.7844L25.2499 56.9277C25.7434 56.6958 26.2169 56.4237 26.6658 56.1144C26.8021 56.0207 26.9384 55.9228 27.0683 55.8206C32.0824 59.389 38.9256 61.6396 44.8447 58.976C46.2542 58.3372 47.5487 57.3067 48.3152 55.9824L63.1108 61.9973Z" fill="#FF2609"/>
<path d="M59.2996 19.3543C59.2805 19.4799 59.257 19.6034 59.2294 19.7269C59.0816 20.3599 58.8443 20.9686 58.5246 21.5345L58.5076 21.5643C58.3862 21.7772 58.2563 21.9902 58.1158 22.2031C57.743 22.7497 57.3362 23.2723 56.8979 23.768L56.636 24.0597C56.4593 24.2577 56.2805 24.4515 56.1016 24.6431C56.2366 24.6142 56.3752 24.6063 56.5125 24.6197C56.5636 24.6239 56.6141 24.6324 56.6637 24.6452C57.3429 24.7858 57.9242 25.4181 58.1052 26.1357C58.1158 26.1825 58.1264 26.2315 58.135 26.2783C58.3032 27.2322 57.922 28.1946 57.4515 29.0462C56.6275 30.5537 55.4394 31.5565 54.394 32.866C53.6105 33.8411 53.1761 34.9951 52.3223 35.9277L52.2585 35.998L52.2074 36.0491C49.9504 38.3741 46.4224 38.9256 43.4778 39.9305C42.4132 40.2968 30.8688 43.5757 30.8688 44.2911C30.8688 44.1357 29.7382 43.0136 28.3138 41.6488C23.2038 36.7964 21.5239 29.2996 24.5643 22.8695C27.8326 15.9497 35.2549 11.0122 42.3237 8.64027C44.5338 7.89932 47.042 7.40109 49.1371 8.42735C51.2322 9.45361 52.2755 12.6367 50.5381 14.191C51.6308 13.3642 52.99 12.9693 54.3557 13.0817C55.6171 13.1607 56.8067 13.6958 57.7027 14.587C58.2034 15.0889 58.6063 15.6795 58.8908 16.3287C59.0079 16.5981 59.1054 16.8756 59.1825 17.1591C59.3742 17.8746 59.4141 18.6224 59.2996 19.3543Z" fill="#F2D4CF"/>
<path d="M59.2994 19.3541C59.2803 19.4797 59.2568 19.6032 59.2292 19.7267C59.0815 20.3597 58.8441 20.9684 58.5244 21.5343L58.5074 21.5641C58.386 21.7771 58.2561 21.99 58.1156 22.2029C57.7428 22.7495 57.336 23.2722 56.8977 23.7678L56.6358 24.0595C56.4591 24.2575 56.2803 24.4513 56.1014 24.6429C56.2364 24.614 56.375 24.6061 56.5123 24.6195C56.5634 24.6237 56.6139 24.6322 56.6635 24.6451C57.3427 24.7856 57.924 25.4179 58.105 26.1355C58.1156 26.1823 58.1263 26.2313 58.1348 26.2781C58.303 27.232 57.9218 28.1944 57.4513 29.046C56.6273 30.5535 55.4392 31.5563 54.3938 32.8658C53.6103 33.8409 53.1759 34.9949 52.3221 35.9275L52.2583 35.9978L52.2072 36.0489C51.351 34.8969 50.8055 33.5442 50.6231 32.1206C50.259 29.1738 50.4804 25.963 50.3803 22.98C50.3463 21.9389 50.2845 20.6976 50.6188 19.7096C50.7102 19.4651 50.8325 19.2332 50.9829 19.0198C51.3747 18.3877 51.8214 17.7914 52.3179 17.2377C52.8808 16.6383 53.5917 16.1977 54.3789 15.9602C54.804 15.8394 55.2396 15.7595 55.6798 15.7217C56.1506 15.6755 56.6251 15.6848 57.0936 15.7494C57.7186 15.8386 58.3228 16.0383 58.8778 16.3392C58.995 16.6086 59.0924 16.8861 59.1695 17.1695C59.364 17.8808 59.4083 18.6248 59.2994 19.3541Z" fill="#DAAEA8"/>
<path d="M28.7395 39.3896C30.7385 39.3896 32.359 37.769 32.359 35.77C32.359 33.7709 30.7385 32.1504 28.7395 32.1504C26.7404 32.1504 25.1199 33.7709 25.1199 35.77C25.1199 37.769 26.7404 39.3896 28.7395 39.3896Z" fill="#F2A196"/>
<path d="M29.8893 39.0107C31.679 39.0107 33.1299 37.5599 33.1299 35.7701C33.1299 33.9804 31.679 32.5295 29.8893 32.5295C28.0995 32.5295 26.6487 33.9804 26.6487 35.7701C26.6487 37.5599 28.0995 39.0107 29.8893 39.0107Z" fill="#E88870"/>
<path d="M29.936 32.3633L30.8729 44.4996L45.0191 52.765C45.9976 53.1305 47.0772 53.1189 48.0477 52.7324C49.0182 52.346 49.8102 51.6123 50.2696 50.6742C52.3051 46.5052 55.5712 39.924 55.1411 37.4733C54.5024 33.8537 52.7991 32.5762 52.7991 32.5762L53.5081 28.3307C53.7742 26.7316 54.117 25.0624 53.721 23.4549C53.2675 21.6131 51.875 20.8253 50.7295 19.4478C47.7146 23.3314 42.7579 25.5265 38.4293 27.7515C36.1958 28.9098 29.936 32.3633 29.936 32.3633Z" fill="#F2A196"/>
<path d="M45.8047 31.3201C45.7877 31.3925 48.6493 39.0107 48.6493 39.0107L44.8296 39.1981M36.76 29.8446C38.7311 29.4376 40.7585 29.3807 42.7494 29.6764M49.3328 29.868C50.5499 29.5868 51.8039 29.4999 53.0482 29.6104" stroke="#00214E" stroke-miterlimit="10"/>
<path d="M40.9162 41.3272C40.9453 41.2812 40.9836 41.2416 41.0287 41.211C41.0738 41.1805 41.1247 41.1595 41.1783 41.1495C41.2318 41.1395 41.2869 41.1407 41.3399 41.153C41.393 41.1652 41.443 41.1883 41.4868 41.2207C41.9296 41.5316 42.7387 42.1916 43.8885 42.4195C45.4555 42.7325 46.814 42.1043 47.1397 42.5089C47.3228 42.7367 47.0993 43.0156 46.6713 43.3606C46.2231 43.6962 45.7122 43.9386 45.1688 44.0735C44.6254 44.2085 44.0605 44.2332 43.5074 44.1462C41.9999 43.863 40.8672 42.1171 40.8672 41.4975C40.869 41.4375 40.8858 41.379 40.9162 41.3272Z" fill="white"/>
<path d="M40.3543 32.2867C41.6531 32.2973 41.6531 34.2817 40.3543 34.2923H40.2947C38.9959 34.2817 38.9959 32.2973 40.2947 32.2867H40.3543ZM51.0555 32.1504C52.2606 32.1504 52.2606 34.0028 51.0555 34.0113H51.0022C49.795 34.0113 49.795 32.1589 51.0022 32.1504H51.0555Z" fill="#00214E"/>
</svg>
