<svg width="32" height="32" viewBox="0 0 32 32" fill="none" xmlns="http://www.w3.org/2000/svg">
<path d="M15.0025 10.7708V14.5841L13.6559 14.1174C12.9758 13.8774 12.5625 13.6507 12.5625 12.4908C12.5625 11.5441 13.2692 10.7708 14.1359 10.7708H15.0025ZM19.44 19.5047C19.44 20.4514 18.7333 21.2247 17.8667 21.2247H17V17.4114L18.3467 17.8781C19.0267 18.1181 19.44 18.3447 19.44 19.5047Z" fill="#09DE85"/>
<path d="M21.5867 2.66675H10.4134C5.56008 2.66675 2.66675 5.56008 2.66675 10.4134V21.5867C2.66675 26.4401 5.56008 29.3334 10.4134 29.3334H21.5867C26.4401 29.3334 29.3334 26.4401 29.3334 21.5867V10.4134C29.3334 5.56008 26.4401 2.66675 21.5867 2.66675ZM19.0134 16.0001C20.0534 16.3601 21.4401 17.1201 21.4401 19.5067C21.4401 21.5601 19.8401 23.2267 17.8667 23.2267H17.0001V24.0001C17.0001 24.5467 16.5467 25.0001 16.0001 25.0001C15.4534 25.0001 15.0001 24.5467 15.0001 24.0001V23.2267H14.5201C12.3334 23.2267 10.5601 21.3734 10.5601 19.1067C10.5601 18.5601 11.0001 18.1067 11.5601 18.1067C12.1067 18.1067 12.5601 18.5601 12.5601 19.1067C12.5601 20.2801 13.4401 21.2267 14.5201 21.2267H15.0001V16.7067L12.9867 16.0001C11.9467 15.6401 10.5601 14.8801 10.5601 12.4934C10.5601 10.4401 12.1601 8.77341 14.1334 8.77341H15.0001V8.00008C15.0001 7.45341 15.4534 7.00008 16.0001 7.00008C16.5467 7.00008 17.0001 7.45341 17.0001 8.00008V8.77341H17.4801C19.6667 8.77341 21.4401 10.6267 21.4401 12.8934C21.4401 13.4401 21.0001 13.8934 20.4401 13.8934C19.8934 13.8934 19.4401 13.4401 19.4401 12.8934C19.4401 11.7201 18.5601 10.7734 17.4801 10.7734H17.0001V15.2934L19.0134 16.0001Z" fill="#09DE85"/>
</svg>
