<svg width="20" height="12" viewBox="0 0 20 12" fill="none" xmlns="http://www.w3.org/2000/svg">
<path d="M13.9127 1H18.67V5.75731M1 10.5146L6.15531 5.35931C6.28153 5.23306 6.43138 5.13291 6.59631 5.06458C6.76124 4.99626 6.93802 4.96109 7.11654 4.96109C7.29506 4.96109 7.47184 4.99626 7.63677 5.06458C7.80169 5.13291 7.95155 5.23306 8.07777 5.35931L10.233 7.51454C10.3592 7.64079 10.5091 7.74094 10.674 7.80926C10.8389 7.87759 11.0157 7.91276 11.1942 7.91276C11.3728 7.91276 11.5495 7.87759 11.7145 7.80926C11.8794 7.74094 12.0292 7.64079 12.1555 7.51454L17.9904 1.67962" stroke="#09DE85" stroke-width="2" stroke-linecap="round" stroke-linejoin="round"/>
</svg>
