<svg width="60" height="57" viewBox="0 0 60 57" fill="none" xmlns="http://www.w3.org/2000/svg">
<path d="M3.66198 32.3958C5.68444 32.3958 7.32396 30.7583 7.32396 28.7383C7.32396 26.7183 5.68444 25.0808 3.66198 25.0808C1.63953 25.0808 0 26.7183 0 28.7383C0 30.7583 1.63953 32.3958 3.66198 32.3958Z" fill="url(#paint0_linear_320_804)"/>
<path d="M27.2352 7.31499C29.2577 7.31499 30.8972 5.67747 30.8972 3.6575C30.8972 1.63752 29.2577 0 27.2352 0C25.2128 0 23.5732 1.63752 23.5732 3.6575C23.5732 5.67747 25.2128 7.31499 27.2352 7.31499Z" fill="url(#paint1_linear_320_804)"/>
<path d="M27.2352 56.7189C29.2577 56.7189 30.8972 55.0814 30.8972 53.0614C30.8972 51.0414 29.2577 49.4039 27.2352 49.4039C25.2128 49.4039 23.5732 51.0414 23.5732 53.0614C23.5732 55.0814 25.2128 56.7189 27.2352 56.7189Z" fill="url(#paint2_linear_320_804)"/>
<path d="M37.8333 34.8331C35.9808 35.4974 34.7649 37.0904 33.3059 38.312C31.5728 39.6981 29.4106 40.4381 27.1906 40.4051C25.5965 40.4043 24.0237 40.0402 22.5917 39.3407C21.0611 38.6263 20.1599 37.2405 18.8654 36.1761L18.6436 36.0118C18.565 35.9403 18.4934 35.8546 18.4076 35.7832C17.3091 34.7572 16.4853 33.4728 16.0116 32.0471C15.6245 30.9427 15.4262 29.7812 15.4251 28.6111C15.4248 26.8615 15.8703 25.1407 16.7197 23.6106C17.5207 22.1819 18.7724 21.0746 19.7308 19.7816C19.8124 19.7109 19.8888 19.6345 19.9597 19.553C20.9937 18.4471 22.29 17.6192 23.7289 17.1457C25.1153 16.6578 26.5894 16.4692 28.0541 16.5924C29.5188 16.7155 30.9407 17.1476 32.2259 17.86C34.4788 19.1101 35.8807 21.4318 38.4841 22.0961C39.5382 22.36 40.6395 22.3737 41.6998 22.1361C42.7601 21.8985 43.7499 21.4162 44.5901 20.7278C45.4302 20.0394 46.0973 19.1641 46.5378 18.172C46.9784 17.1798 47.1802 16.0984 47.1271 15.0144C47.074 13.9304 46.7674 12.8738 46.232 11.9294C45.6966 10.9849 44.9472 10.1788 44.0438 9.57562C43.1404 8.97245 42.1081 8.58895 41.0296 8.45585C39.9512 8.32275 38.8565 8.44374 37.8333 8.80914C35.9808 9.47349 34.7649 11.0665 33.3059 12.288C31.5728 13.6741 29.4106 14.4142 27.1906 14.3811C25.5965 14.3803 24.0237 14.0163 22.5917 13.3167C21.0611 12.5666 20.1599 11.2165 18.8654 10.1521C17.5341 8.99766 15.8169 8.38544 14.0546 8.43705C12.2924 8.48866 10.614 9.20033 9.35279 10.4307C8.66544 11.1192 8.13068 11.9443 7.78321 12.8526C7.43574 13.7608 7.28332 14.7318 7.33584 15.7027C7.32307 16.5046 7.45138 17.3025 7.71491 18.06C8.37293 19.8888 9.96074 21.096 11.1766 22.5462C12.5525 24.2662 13.2881 26.4097 13.2579 28.6111C13.2571 30.1932 12.895 31.7543 12.1994 33.1758C11.5514 34.2719 10.7302 35.2561 9.76763 36.0904L9.35279 36.4618C8.5356 37.2809 7.93567 38.2905 7.60724 39.3993C7.27881 40.5081 7.23224 41.6811 7.47173 42.8124C7.7181 44.1398 8.36733 45.3594 9.33134 46.3056C10.4603 47.434 11.9456 48.1374 13.5349 48.2963C15.1241 48.4551 16.7195 48.0597 18.05 47.1771C18.4927 46.9122 18.9094 46.606 19.2945 46.2628C19.5304 46.0534 19.7525 45.8291 19.9597 45.5913C20.9937 44.4854 22.29 43.6574 23.7289 43.1839C25.1153 42.696 26.5894 42.5074 28.0541 42.6306C29.5188 42.7537 30.9407 43.1858 32.2259 43.8982C34.4788 45.1484 35.8807 47.47 38.4841 48.1344C39.5382 48.3983 40.6395 48.412 41.6998 48.1743C42.7601 47.9367 43.7499 47.4544 44.5901 46.766C45.4302 46.0777 46.0973 45.2024 46.5378 44.2102C46.9784 43.2181 47.1802 42.1367 47.1271 41.0526C47.074 39.9686 46.7674 38.912 46.232 37.9676C45.6966 37.0231 44.9472 36.217 44.0438 35.6139C43.1404 35.0107 42.1081 34.6272 41.0296 34.4941C39.9512 34.361 38.8565 34.482 37.8333 34.8474V34.8331Z" fill="url(#paint3_linear_320_804)"/>
<path d="M57.4627 23.8181C56.5552 22.9187 55.4115 22.2939 54.1637 22.0159C52.9159 21.7378 51.6148 21.8177 50.4106 22.2465C48.6225 22.8823 47.4424 24.4396 46.0262 25.6182C44.3444 26.9595 42.2489 27.6765 40.0969 27.647C38.5503 27.648 37.0238 27.2962 35.6339 26.6183C34.1462 25.904 33.2736 24.5753 32.0148 23.5466C30.7102 22.3341 28.9776 21.6872 27.1965 21.7477C25.4154 21.8081 23.7309 22.5708 22.5115 23.8689C21.2922 25.1671 20.6375 26.8948 20.6908 28.674C20.744 30.4531 21.5008 32.1387 22.7955 33.3618C23.7111 34.258 24.8642 34.874 26.1187 35.1372C27.3733 35.4005 28.677 35.3 29.8763 34.8477C30.8181 34.5104 31.6852 33.9937 32.4297 33.3261C32.659 33.1221 32.8763 32.9051 33.0805 32.6761C34.081 31.6025 35.3352 30.7969 36.7282 30.333C38.0765 29.8633 39.5091 29.6842 40.9317 29.8073C42.3543 29.9304 43.7347 30.353 44.982 31.0473C47.1277 32.2617 48.5224 34.5262 51.0471 35.1549C52.4826 35.5227 53.9994 35.4087 55.3635 34.8302C56.7276 34.2518 57.8633 33.2412 58.5955 31.9543C59.3276 30.6674 59.6154 29.1756 59.4146 27.7091C59.2137 26.2426 58.5354 24.8828 57.4842 23.8395L57.4627 23.8181Z" fill="url(#paint4_linear_320_804)"/>
<defs>
<linearGradient id="paint0_linear_320_804" x1="7.09508" y1="28.7383" x2="56.7106" y2="28.7383" gradientUnits="userSpaceOnUse">
<stop stop-color="#00F6A3"/>
<stop offset="0.12" stop-color="#00F5AD"/>
<stop offset="0.34" stop-color="#00F1C9"/>
<stop offset="0.61" stop-color="#01EBF5"/>
<stop offset="0.67" stop-color="#01EAFF"/>
</linearGradient>
<linearGradient id="paint1_linear_320_804" x1="7.09433" y1="3.6575" x2="56.7099" y2="3.6575" gradientUnits="userSpaceOnUse">
<stop stop-color="#00F6A3"/>
<stop offset="0.08" stop-color="#00F5AD"/>
<stop offset="0.21" stop-color="#00F1C9"/>
<stop offset="0.38" stop-color="#01EBF5"/>
<stop offset="0.41" stop-color="#01EAFF"/>
<stop offset="0.55" stop-color="#09D7FF"/>
<stop offset="0.81" stop-color="#1DA7FF"/>
<stop offset="1" stop-color="#2C82FF"/>
</linearGradient>
<linearGradient id="paint2_linear_320_804" x1="7.09433" y1="53.0614" x2="56.7099" y2="53.0614" gradientUnits="userSpaceOnUse">
<stop stop-color="#00F6A3"/>
<stop offset="0.08" stop-color="#00F5AD"/>
<stop offset="0.21" stop-color="#00F1C9"/>
<stop offset="0.38" stop-color="#01EBF5"/>
<stop offset="0.41" stop-color="#01EAFF"/>
<stop offset="0.55" stop-color="#09D7FF"/>
<stop offset="0.81" stop-color="#1DA7FF"/>
<stop offset="1" stop-color="#2C82FF"/>
</linearGradient>
<linearGradient id="paint3_linear_320_804" x1="7.09266" y1="28.361" x2="56.7082" y2="28.361" gradientUnits="userSpaceOnUse">
<stop stop-color="#00F6A3"/>
<stop offset="0.08" stop-color="#00F5AD"/>
<stop offset="0.21" stop-color="#00F1C9"/>
<stop offset="0.38" stop-color="#01EBF5"/>
<stop offset="0.41" stop-color="#01EAFF"/>
<stop offset="0.55" stop-color="#09D7FF"/>
<stop offset="0.81" stop-color="#1DA7FF"/>
<stop offset="1" stop-color="#2C82FF"/>
</linearGradient>
<linearGradient id="paint4_linear_320_804" x1="7.09622" y1="28.5685" x2="56.7117" y2="28.5685" gradientUnits="userSpaceOnUse">
<stop stop-color="#00F6A3"/>
<stop offset="0.08" stop-color="#00F5AD"/>
<stop offset="0.21" stop-color="#00F1C9"/>
<stop offset="0.38" stop-color="#01EBF5"/>
<stop offset="0.41" stop-color="#01EAFF"/>
<stop offset="0.55" stop-color="#09D7FF"/>
<stop offset="0.81" stop-color="#1DA7FF"/>
<stop offset="1" stop-color="#2C82FF"/>
</linearGradient>
</defs>
</svg>
