<svg width="40" height="40" viewBox="0 0 40 40" fill="none" xmlns="http://www.w3.org/2000/svg">
<rect width="40" height="40" rx="4" fill="#363636"/>
<path fill-rule="evenodd" clip-rule="evenodd" d="M21.3333 8.00008C21.3333 7.26371 20.7364 6.66675 20 6.66675C19.2636 6.66675 18.6666 7.26371 18.6666 8.00008V9.00008H17.9234C14.9566 9.00008 12.5012 11.3068 12.316 14.2677L12.0213 18.979C11.909 20.7753 11.3059 22.5063 10.2778 23.9835C9.34892 25.3182 10.1759 27.1617 11.7905 27.3554L16.3333 27.9006V29.3334C16.3333 31.3585 17.9749 33.0001 20 33.0001C22.025 33.0001 23.6666 31.3585 23.6666 29.3334V27.9006L28.2094 27.3554C29.8241 27.1617 30.651 25.3182 29.7221 23.9835C28.694 22.5063 28.0909 20.7753 27.9786 18.979L27.684 14.2677C27.4988 11.3068 25.0433 9.00008 22.0765 9.00008H21.3333V8.00008ZM17.9234 11.0001C16.0127 11.0001 14.4313 12.4856 14.3121 14.3926L14.0174 19.1038C13.8822 21.2654 13.1565 23.3483 11.9194 25.1259C11.8523 25.2225 11.912 25.3557 12.0287 25.3697L17.0123 25.9677C18.9969 26.2058 21.003 26.2058 22.9876 25.9677L27.9712 25.3697C28.0878 25.3557 28.1477 25.2225 28.0805 25.1259C26.8434 23.3483 26.1177 21.2654 25.9825 19.1038L25.6878 14.3926C25.5685 12.4856 23.9872 11.0001 22.0765 11.0001H17.9234ZM20 31.0001C19.0794 31.0001 18.3333 30.2539 18.3333 29.3334V28.3334H21.6666V29.3334C21.6666 30.2539 20.9205 31.0001 20 31.0001Z" fill="white"/>
<circle cx="27.5" cy="12.5" r="5.5" fill="#FFCC00" stroke="#363636" stroke-width="2"/>
</svg>
