<svg width="40" height="40" viewBox="0 0 40 40" fill="none" xmlns="http://www.w3.org/2000/svg">
<circle cx="20" cy="20" r="20" fill="#D9D9D9"/>
<path d="M31.128 32.614C27.9347 35.0728 24.0133 36.3979 19.9831 36.3801C15.9529 36.3623 12.0434 35.0026 8.87195 32.5157L13.6537 30.2742C13.8815 30.1672 14.1 30.0416 14.3072 29.8988C14.3701 29.8556 14.433 29.8104 14.493 29.7632C15.0134 29.365 15.4418 28.8592 15.7488 28.2803C15.981 27.8356 16.1352 27.3543 16.2048 26.8574C16.2528 26.535 16.2771 26.2095 16.2775 25.8835C16.2775 25.3214 16.2471 24.7593 16.2412 24.1963C16.2372 23.8851 16.234 23.5736 16.2313 23.2617L16.4279 23.36L16.9389 23.6243L17.1757 23.6646L19.9155 24.1304L22.9736 24.6512L23.066 27.7959L23.0964 28.8238L23.1112 29.323V29.3534L24.3002 29.8369L31.128 32.614Z" fill="#F2A196"/>
<path d="M23.0994 29.1205C22.7617 29.1786 22.4142 29.1248 22.1098 28.9672L16.2491 24.1737C16.2422 23.9516 16.2363 24.1845 16.2333 23.9624C16.2294 23.6512 16.2261 23.3397 16.2235 23.0278L16.42 23.1261L16.931 23.3904L17.1679 23.4307L19.9076 23.8965L22.9658 24.4174L23.0581 27.562L23.0886 28.5899L23.1033 29.0891V29.1215L23.0994 29.1205Z" fill="#E88870"/>
<path d="M31.128 32.614C27.9347 35.0728 24.0133 36.3979 19.9831 36.3801C15.9529 36.3623 12.0434 35.0026 8.87195 32.5157L13.6537 30.2742C13.8815 30.1671 14.1 30.0416 14.3072 29.8988C14.3701 29.8556 14.433 29.8104 14.493 29.7632C16.8072 31.4102 19.9656 32.4489 22.6975 31.2195C23.348 30.9247 23.9455 30.4491 24.2993 29.8379L31.128 32.614Z" fill="#FF2609"/>
<path d="M29.369 12.9326C29.3601 12.9906 29.3493 13.0476 29.3365 13.1046C29.2684 13.3967 29.1588 13.6777 29.0113 13.9389L29.0034 13.9526C28.9474 14.0509 28.8874 14.1492 28.8226 14.2474C28.6505 14.4997 28.4628 14.741 28.2605 14.9697L28.1396 15.1044C28.0581 15.1957 27.9755 15.2852 27.893 15.3736C27.9552 15.3603 28.0192 15.3566 28.0826 15.3628C28.1062 15.3647 28.1295 15.3687 28.1524 15.3746C28.4659 15.4395 28.7341 15.7313 28.8177 16.0625C28.8226 16.0841 28.8275 16.1067 28.8314 16.1283C28.9091 16.5686 28.7332 17.0127 28.516 17.4058C28.1357 18.1016 27.5873 18.5644 27.1048 19.1688C26.7432 19.6188 26.5427 20.1515 26.1487 20.5819L26.1192 20.6143L26.0956 20.6379C25.054 21.711 23.4256 21.9655 22.0666 22.4294C21.5752 22.5984 16.2471 24.1117 16.2471 24.4419C16.2471 24.3702 15.7252 23.8523 15.0678 23.2224C12.7094 20.9828 11.934 17.5228 13.3373 14.555C14.8457 11.3613 18.2714 9.08241 21.534 7.98769C22.554 7.64571 23.7116 7.41576 24.6786 7.88942C25.6455 8.36307 26.1271 9.8322 25.3252 10.5496C25.8295 10.168 26.4568 9.9857 27.0872 10.0376C27.6693 10.0741 28.2184 10.321 28.6319 10.7323C28.863 10.964 29.049 11.2365 29.1803 11.5362C29.2343 11.6605 29.2793 11.7886 29.3149 11.9194C29.4034 12.2497 29.4218 12.5948 29.369 12.9326Z" fill="#F2D4CF"/>
<path d="M29.369 12.9327C29.3601 12.9907 29.3493 13.0477 29.3365 13.1047C29.2684 13.3968 29.1588 13.6778 29.0113 13.939L29.0034 13.9527C28.9474 14.051 28.8874 14.1493 28.8226 14.2475C28.6505 14.4998 28.4628 14.7411 28.2605 14.9698L28.1396 15.1045C28.058 15.1958 27.9755 15.2853 27.8929 15.3737C27.9552 15.3604 28.0192 15.3567 28.0826 15.3629C28.1062 15.3648 28.1295 15.3688 28.1524 15.3747C28.4659 15.4396 28.7341 15.7314 28.8177 16.0626C28.8226 16.0842 28.8275 16.1068 28.8314 16.1284C28.9091 16.5687 28.7332 17.0128 28.516 17.4059C28.1357 18.1017 27.5873 18.5645 27.1048 19.1689C26.7432 19.6189 26.5427 20.1516 26.1487 20.582L26.1192 20.6144L26.0956 20.638C25.7005 20.1063 25.4487 19.482 25.3645 18.8249C25.1964 17.4649 25.2986 15.983 25.2525 14.6062C25.2367 14.1257 25.2082 13.5528 25.3625 13.0968C25.4047 12.9839 25.4612 12.8769 25.5306 12.7784C25.7114 12.4867 25.9176 12.2115 26.1467 11.9559C26.4065 11.6793 26.7346 11.4759 27.0979 11.3663C27.2941 11.3105 27.4952 11.2737 27.6984 11.2562C27.9156 11.2349 28.1346 11.2392 28.3509 11.269C28.6394 11.3102 28.9182 11.4024 29.1744 11.5412C29.2284 11.6655 29.2734 11.7936 29.309 11.9245C29.3988 12.2527 29.4192 12.5961 29.369 12.9327Z" fill="#DAAEA8"/>
<path d="M15.2645 22.1798C16.1871 22.1798 16.935 21.4318 16.935 20.5092C16.935 19.5866 16.1871 18.8386 15.2645 18.8386C14.3418 18.8386 13.5939 19.5866 13.5939 20.5092C13.5939 21.4318 14.3418 22.1798 15.2645 22.1798Z" fill="#F2A196"/>
<path d="M15.7951 22.005C16.6211 22.005 17.2908 21.3354 17.2908 20.5093C17.2908 19.6833 16.6211 19.0137 15.7951 19.0137C14.9691 19.0137 14.2994 19.6833 14.2994 20.5093C14.2994 21.3354 14.9691 22.005 15.7951 22.005Z" fill="#E88870"/>
<path d="M15.8167 18.9369L16.249 24.5382L22.7781 28.353C23.2297 28.5217 23.728 28.5164 24.1759 28.338C24.6238 28.1596 24.9893 27.821 25.2014 27.388C26.1408 25.4639 27.6483 22.4264 27.4498 21.2953C27.155 19.6247 26.3688 19.0351 26.3688 19.0351L26.6961 17.0756C26.8189 16.3376 26.9771 15.5672 26.7943 14.8253C26.585 13.9752 25.9423 13.6116 25.4136 12.9758C24.0221 14.7683 21.7344 15.7814 19.7366 16.8083C18.7058 17.3429 15.8167 18.9369 15.8167 18.9369Z" fill="#F2A196"/>
<path d="M23.1407 18.4554C23.1328 18.4888 24.4535 22.0049 24.4535 22.0049L22.6906 22.0914M18.9662 17.7744C19.8759 17.5866 20.8116 17.5603 21.7305 17.6968M24.769 17.7852C25.3307 17.6554 25.9095 17.6153 26.4838 17.6663" stroke="#00214E" stroke-miterlimit="10"/>
<path d="M20.8844 23.0741C20.8979 23.0529 20.9155 23.0346 20.9364 23.0205C20.9572 23.0064 20.9807 22.9967 21.0054 22.9921C21.0301 22.9875 21.0555 22.988 21.08 22.9937C21.1045 22.9993 21.1276 23.01 21.1478 23.025C21.3522 23.1684 21.7256 23.4731 22.2563 23.5782C22.9795 23.7227 23.6065 23.4328 23.7568 23.6195C23.8413 23.7247 23.7382 23.8534 23.5406 24.0126C23.3338 24.1675 23.098 24.2794 22.8472 24.3416C22.5964 24.4039 22.3356 24.4153 22.0804 24.3752C21.3846 24.2445 20.8618 23.4387 20.8618 23.1527C20.8626 23.125 20.8704 23.098 20.8844 23.0741Z" fill="white"/>
<path d="M20.625 18.9015C21.2245 18.9064 21.2245 19.8223 20.625 19.8272H20.5975C19.9981 19.8223 19.9981 18.9064 20.5975 18.9015H20.625ZM25.5641 18.8386C26.1203 18.8386 26.1203 19.6936 25.5641 19.6975H25.5395C24.9823 19.6975 24.9823 18.8426 25.5395 18.8386H25.5641Z" fill="#00214E"/>
</svg>
