<svg width="40" height="40" viewBox="0 0 40 40" fill="none" xmlns="http://www.w3.org/2000/svg">
<rect width="40" height="40" rx="4" fill="#363636"/>
<path fill-rule="evenodd" clip-rule="evenodd" d="M23.1801 24.5942C19.6463 27.4245 14.4738 27.2017 11.1981 23.9259C7.68333 20.4113 7.68333 14.7128 11.1981 11.1981C14.7128 7.68333 20.4113 7.68333 23.9259 11.1981C27.2017 14.4738 27.4245 19.6463 24.5942 23.1801L31.4685 30.0542C31.859 30.4447 31.859 31.0779 31.4685 31.4685C31.0779 31.859 30.4447 31.859 30.0542 31.4685L23.1801 24.5942ZM12.6123 22.5118C9.8786 19.7781 9.8786 15.3459 12.6123 12.6123C15.3459 9.8786 19.7781 9.8786 22.5118 12.6123C25.2434 15.3439 25.2454 19.7715 22.5178 22.5058C22.5158 22.5078 22.5138 22.5097 22.5117 22.5118C22.5097 22.5138 22.5077 22.5158 22.5058 22.5178C19.7715 25.2454 15.3439 25.2434 12.6123 22.5118Z" fill="white"/>
</svg>
