<svg width="32" height="32" viewBox="0 0 32 32" fill="none" xmlns="http://www.w3.org/2000/svg">
<path d="M29.3337 14.6256V17.3723C29.3337 18.1056 28.747 18.7056 28.0004 18.7323H25.387C23.947 18.7323 22.627 17.6789 22.507 16.2389C22.427 15.3989 22.747 14.6123 23.307 14.0656C23.8004 13.5589 24.4804 13.2656 25.227 13.2656H28.0004C28.747 13.2923 29.3337 13.8923 29.3337 14.6256Z" fill="#09DE85"/>
<path d="M27.2934 20.7334H25.3867C22.8534 20.7334 20.7201 18.8267 20.5067 16.4001C20.3867 15.0134 20.8934 13.6267 21.9067 12.6401C22.7601 11.7601 23.9467 11.2667 25.2267 11.2667H27.2934C27.6801 11.2667 28.0001 10.9467 27.9601 10.5601C27.6667 7.32008 25.5201 5.10675 22.3334 4.73341C22.0134 4.68008 21.6801 4.66675 21.3334 4.66675H9.33341C8.96008 4.66675 8.60008 4.69341 8.25341 4.74675C4.85341 5.17341 2.66675 7.70675 2.66675 11.3334V20.6667C2.66675 24.3467 5.65341 27.3334 9.33341 27.3334H21.3334C25.0667 27.3334 27.6401 25.0001 27.9601 21.4401C28.0001 21.0534 27.6801 20.7334 27.2934 20.7334ZM17.3334 13.0001H9.33341C8.78675 13.0001 8.33341 12.5467 8.33341 12.0001C8.33341 11.4534 8.78675 11.0001 9.33341 11.0001H17.3334C17.8801 11.0001 18.3334 11.4534 18.3334 12.0001C18.3334 12.5467 17.8801 13.0001 17.3334 13.0001Z" fill="#09DE85"/>
</svg>
