<svg width="64" height="64" viewBox="0 0 64 64" fill="none" xmlns="http://www.w3.org/2000/svg">
<path d="M48.6506 21.9302C48.6506 23.3051 47.0958 24.4581 46.7569 25.7264C46.4075 27.0402 47.1656 28.8134 46.5018 29.9629C45.8379 31.1125 43.904 31.3605 42.9588 32.2987C42.0137 33.2368 41.7866 35.1673 40.6213 35.8416C39.4561 36.516 37.6986 35.7473 36.3866 36.0984C35.1183 36.4374 33.9652 37.9922 32.5886 37.9922C31.2119 37.9922 30.0607 36.4374 28.7923 36.0984C27.4803 35.749 25.7054 36.5072 24.5576 35.8416C23.4098 35.176 23.16 33.2456 22.2201 32.2987C21.2802 31.3518 19.3515 31.1282 18.6771 29.9629C18.0028 28.7977 18.7715 27.0402 18.4221 25.7264C18.0832 24.4581 16.5283 23.3051 16.5283 21.9302C16.5283 20.5553 18.0832 19.4023 18.4221 18.1339C18.7715 16.8202 18.0133 15.047 18.6771 13.8974C19.341 12.7479 21.2749 12.4998 22.2201 11.5617C23.1652 10.6235 23.3906 8.69308 24.5576 8.01873C25.7246 7.34439 27.4803 8.11307 28.7923 7.76192C30.0607 7.423 31.2137 5.86816 32.5886 5.86816C33.9635 5.86816 35.1183 7.423 36.3866 7.76192C37.6986 8.11133 39.4718 7.35312 40.6213 8.01873C41.7709 8.68435 42.019 10.6148 42.9588 11.5617C43.8987 12.5086 45.8274 12.7322 46.5018 13.8974C47.1761 15.0627 46.4057 16.8202 46.7569 18.1339C47.0958 19.4023 48.6506 20.5553 48.6506 21.9302Z" fill="#00214E"/>
<path d="M23.5534 32.8875C25.1937 32.8875 26.5233 31.5578 26.5233 29.9176C26.5233 28.2773 25.1937 26.9476 23.5534 26.9476C21.9132 26.9476 20.5835 28.2773 20.5835 29.9176C20.5835 31.5578 21.9132 32.8875 23.5534 32.8875Z" fill="#E18477"/>
<path d="M24.577 32.5381C26.1207 32.5381 27.3722 31.2866 27.3722 29.7428C27.3722 28.1991 26.1207 26.9476 24.577 26.9476C23.0332 26.9476 21.7817 28.1991 21.7817 29.7428C21.7817 31.2866 23.0332 32.5381 24.577 32.5381Z" fill="#A76962"/>
<path d="M51.7831 51.4372C46.1061 55.8084 39.1348 58.1641 31.97 58.1325C24.8052 58.1008 17.855 55.6836 12.2168 51.2625L20.7178 47.2776C21.1226 47.0873 21.5112 46.8641 21.8795 46.6102C21.9913 46.5334 22.1031 46.453 22.2097 46.3691C23.1349 45.6612 23.8965 44.762 24.4424 43.7329C25.1412 42.4139 25.3718 40.9569 25.3823 39.4719C25.3823 38.4726 25.3281 37.4734 25.3176 36.4723C25.3106 35.9191 25.3048 35.3653 25.3002 34.8109L25.6496 34.9856L26.5545 35.4643L26.9755 35.5359L31.8462 36.364L37.2829 37.2899L37.4471 42.8804L37.5275 45.5952V45.6529L39.6414 46.5124L51.7831 51.4372Z" fill="#E18477"/>
<path d="M37.5066 44.9646L37.2376 44.9926C35.9385 45.1064 34.6303 44.9365 33.4034 44.4946C32.1766 44.0527 31.0605 43.3493 30.1325 42.4332L25.3492 36.7536C25.3334 36.247 25.3142 36.7536 25.309 36.2453C25.302 35.692 25.2962 35.1382 25.2915 34.5839L25.6409 34.7586L26.5494 35.2285L26.9704 35.3001L31.841 36.1282L37.2777 37.0541L37.442 42.6446L37.5066 44.9646Z" fill="#A76962"/>
<path d="M24.4462 23.8729C24.3082 24.0476 24.1859 24.3883 24.0548 24.9403C23.7526 26.2209 25.0768 34.6292 25.3302 37.103L31.6928 41.7955C32.7376 42.5755 33.9394 43.1192 35.2151 43.3888C36.4907 43.6585 37.8098 43.6477 39.0809 43.3573C40.1064 43.1145 40.7563 42.9572 41.2192 42.1344C42.1137 40.5621 44.3097 35.183 44.4529 31.3885C44.4931 30.3124 44.4669 28.6702 43.803 27.7513C43.4799 27.3058 43.3139 27.297 43.4309 26.6664C43.548 26.0357 43.7244 25.3613 43.8694 24.708C44.2695 22.9033 44.5892 20.8645 44.0109 19.0686C43.7035 18.1077 43.1601 17.4718 42.388 16.8551C41.5634 16.1948 41.2227 16.2262 40.7283 17.2045C40.3946 17.8684 40.0592 18.4275 39.3831 18.8048C38.403 19.3481 37.7357 18.9952 36.7626 18.9201C35.9101 18.8555 36.0009 19.5141 35.814 20.143C35.6204 20.8032 35.202 21.3749 34.6312 21.759C34.1117 22.0961 33.5064 22.2771 32.887 22.2805C32.2677 22.2839 31.6604 22.1096 31.1372 21.7782C30.9923 21.6742 30.8177 21.6197 30.6393 21.6227C30.0558 21.6542 30.0296 22.3547 29.8968 22.8579C29.6156 23.9061 28.3909 24.4861 27.3025 24.4022C25.5276 24.2695 24.8951 23.2806 24.4462 23.8729Z" fill="#E18477"/>
<path d="M38.4675 26.9983C38.5155 27.677 38.6326 28.349 38.8169 29.0039C38.9916 29.5822 39.2572 29.9421 39.6066 30.44C39.7272 30.6043 39.8319 30.7798 39.9193 30.9641C40.3805 32.0018 39.7673 33.1531 38.6003 33.1531H37.8788M33.3959 34.8651C34.2358 35.8019 35.3863 36.4032 36.6349 36.558M30.1343 25.0557C31.7516 24.7217 33.4151 24.675 35.0486 24.9177M40.4504 25.0749C41.4493 24.8421 42.4791 24.7707 43.5007 24.8635" stroke="#00214E" stroke-miterlimit="10"/>
<path d="M51.7831 51.4372C46.1061 55.8084 39.1348 58.1641 31.97 58.1325C24.8052 58.1008 17.855 55.6836 12.2168 51.2625L20.7178 47.2776C21.1226 47.0873 21.5112 46.8641 21.8795 46.6102C21.9913 46.5334 22.1031 46.453 22.2097 46.3691C26.3239 49.2971 31.9388 51.1437 36.7955 48.9582C37.952 48.4341 39.0142 47.5886 39.6431 46.5019L51.7831 51.4372Z" fill="url(#paint0_linear_51_675)"/>
<path d="M35.55 31.9231C35.4248 31.9886 35.3271 32.0964 35.274 32.2273C35.221 32.3581 35.2162 32.5036 35.2605 32.6377C35.3048 32.7718 35.3953 32.8858 35.5158 32.9594C35.6363 33.033 35.7791 33.0613 35.9186 33.0394" stroke="#00214E" stroke-miterlimit="10"/>
<path d="M32.699 26.717C33.7664 26.717 33.7664 28.3557 32.699 28.3644H32.6518C31.5861 28.3557 31.5861 26.7257 32.6518 26.717H32.699ZM41.4812 26.6017C42.47 26.6017 42.47 28.1216 41.4812 28.1303H41.4358C40.447 28.1216 40.447 26.6104 41.4358 26.6017H41.4812Z" fill="#00214E"/>
<defs>
<linearGradient id="paint0_linear_51_675" x1="12.2168" y1="52.2496" x2="51.7831" y2="52.2496" gradientUnits="userSpaceOnUse">
<stop stop-color="#315676"/>
<stop offset="1" stop-color="#E1B9E0"/>
</linearGradient>
</defs>
</svg>
