<svg width="30" height="30" viewBox="0 0 30 30" fill="none" xmlns="http://www.w3.org/2000/svg">
<path d="M14.9999 27.7777C22.0569 27.7777 27.7777 22.0569 27.7777 14.9999C27.7777 7.94297 22.0569 2.22217 14.9999 2.22217C7.94297 2.22217 2.22217 7.94297 2.22217 14.9999C2.22217 22.0569 7.94297 27.7777 14.9999 27.7777Z" stroke="#5B5B5B" stroke-width="3" stroke-linecap="round" stroke-linejoin="round"/>
<path d="M20.4518 19.9604C18.841 20.8694 16.9806 21.3882 14.9991 21.3882C13.0176 21.3882 11.1573 20.8695 9.54639 19.9604" stroke="#5B5B5B" stroke-width="3" stroke-linecap="round" stroke-linejoin="round"/>
<path d="M11.6649 12.2223C11.6649 13.1428 10.9178 13.889 9.99821 13.889C9.0786 13.889 8.33154 13.1427 8.33154 12.2223C8.33154 11.3028 9.0786 10.5557 9.99821 10.5557C10.9178 10.5557 11.6649 11.3028 11.6649 12.2223ZM21.6649 12.2223C21.6649 13.1428 20.9178 13.889 19.9982 13.889C19.0786 13.889 18.3315 13.1427 18.3315 12.2223C18.3315 11.3028 19.0786 10.5557 19.9982 10.5557C20.9178 10.5557 21.6649 11.3028 21.6649 12.2223Z" fill="#5B5B5B"/>
</svg>
