<svg width="40" height="40" viewBox="0 0 40 40" fill="none" xmlns="http://www.w3.org/2000/svg">
<path fill-rule="evenodd" clip-rule="evenodd" d="M3.75 20C3.75 13.7868 8.7868 8.75 15 8.75H28.3333C32.7057 8.75 36.25 12.2944 36.25 16.6667C36.25 21.039 32.7057 24.5833 28.3333 24.5833H14.7619C12.2306 24.5833 10.1786 22.5313 10.1786 20C10.1786 17.4687 12.2306 15.4167 14.7619 15.4167H27.8572C28.5475 15.4167 29.1072 15.9763 29.1072 16.6667C29.1072 17.357 28.5475 17.9167 27.8572 17.9167H14.7619C13.6113 17.9167 12.6786 18.8493 12.6786 20C12.6786 21.1507 13.6113 22.0833 14.7619 22.0833H28.3333C31.3248 22.0833 33.75 19.6582 33.75 16.6667C33.75 13.6751 31.3248 11.25 28.3333 11.25H15C10.1675 11.25 6.25 15.1675 6.25 20C6.25 24.8325 10.1675 28.75 15 28.75H27.8572C28.5475 28.75 29.1072 29.3097 29.1072 30C29.1072 30.6903 28.5475 31.25 27.8572 31.25H15C8.7868 31.25 3.75 26.2132 3.75 20Z" fill="#5B5B5B"/>
</svg>
