<svg width="40" height="40" viewBox="0 0 40 40" fill="none" xmlns="http://www.w3.org/2000/svg">
<path fill-rule="evenodd" clip-rule="evenodd" d="M36.2498 20C36.2498 20.454 36.0037 20.8722 35.6068 21.0927L31.803 23.206C24.284 27.3832 16.3577 30.7812 8.14782 33.3467L7.03935 33.6932C6.6598 33.8117 6.24647 33.7427 5.92609 33.5072C5.6057 33.2715 5.4165 32.8977 5.4165 32.5V22.9167C5.4165 22.265 5.91719 21.7227 6.56682 21.6707L6.9457 21.6403C10.5315 21.3535 14.0896 20.8048 17.5918 19.9995C14.0404 19.183 10.4315 18.6303 6.79467 18.3472L6.56942 18.3295C5.91869 18.2788 5.4165 17.736 5.4165 17.0833V7.50002C5.4165 7.10237 5.6057 6.72843 5.92609 6.4929C6.24647 6.25735 6.6598 6.1883 7.03935 6.30692L8.1478 6.6533C16.3577 9.2189 24.284 12.6168 31.803 16.794L35.6068 18.9073C36.0037 19.1278 36.2498 19.546 36.2498 20ZM32.426 20L30.5888 18.9795C23.3758 14.9722 15.7806 11.6967 7.9165 9.20148V15.9326C12.8 16.3731 17.6303 17.2837 22.3403 18.652L22.8485 18.7997C23.383 18.9548 23.7503 19.4447 23.7498 20.0012C23.7493 20.5577 23.381 21.0468 22.8462 21.201L22.1953 21.3888C17.5312 22.734 12.7499 23.6307 7.9165 24.0667V30.7985C15.7806 28.3033 23.3758 25.0278 30.5888 21.0207L32.426 20Z" fill="white"/>
</svg>
